<?xml version="1.0" encoding="UTF-8"?><svg id="a" xmlns="http://www.w3.org/2000/svg" viewBox="0 0 1366 768"><defs><style>.b{fill:#f0eadc;}.c{fill:#784431;}.d,.e{stroke-width:1.67px;}.d,.e,.f{fill:none;stroke:#784431;stroke-linecap:round;stroke-linejoin:round;}.e{stroke-dasharray:0 0 5.02 5.02;}.f{stroke-width:1.71px;}</style></defs><rect class="b" x=".93" y="0" width="1365.75" height="768"/><path class="e" d="M1381.74,433.43c-9.23,5.85-18.97,11.89-30.38,13.4-11.41,1.51-24.87-3.22-27.82-12.64-2.69-8.59,4.19-17.43,12.72-22.63,4.16-2.53,9.74-4.55,14.26-2.51,3.54,1.6,5.16,5.32,4.8,8.69-.35,3.37-2.31,6.47-4.43,9.34-18.66,25.26-54.29,40.86-89.52,39.2"/><path class="e" d="M-38.39,307.94c2.7-14.83,10.85-29.28,24.54-38.86,13.69-9.58,33.23-13.64,49.99-8.61,16.76,5.03,29.29,19.88,27.27,34.79-.97,7.15-5.42,14.25-12.91,17.7-7.49,3.45-18.03,2.32-23.1-3.48-4.35-4.98-3.86-12.09-.58-17.62,3.28-5.53,8.88-9.8,14.53-13.73,25.75-17.94,55.24-32.06,86.71-41.49"/><path class="e" d="M826.4,394.18c25.86,3.97,52.56-4.06,74.41-16.38,5.74-3.23,11.37-6.88,15.04-11.81,3.67-4.93,5.07-11.41,2.02-16.63-4.96-8.49-20.36-9.74-28.89-3.59-8.53,6.15-10.39,17.14-6.9,26.14,5.32,13.75,21,23.21,37.53,27.09,16.52,3.88,34.02,3.1,51.14,2.29"/><path class="e" d="M975.91,400.19c28.69-6.62,55.64-18.58,78.36-34.78,7.64-5.45,15.1-11.77,17.86-19.88,2.75-8.12-.9-18.33-10.23-21.4-11.95-3.93-24.57,5.74-28.66,16-8.72,21.84,5.67,46.44,27.21,60.62,21.54,14.18,48.83,20.27,75.29,26.01"/><path class="e" d="M1143.03,428.74c35.21,12.22,61.68,40.82,67.21,72.59,.87,5.02,1.24,10.26-.73,15.04s-6.73,9.04-12.69,9.68c-7.07,.75-13.86-3.94-16.04-9.66-2.19-5.72-.56-12.06,2.57-17.46,6.61-11.4,19.5-19.52,33.44-24.29,13.94-4.77,29.03-6.54,43.96-8.12"/><path class="e" d="M822.18,392.33c-22.71-6.13-42.03-20.65-51.85-38.98-9.82-18.32-9.99-40.15-.44-58.58,3.44-6.64,8.27-13.02,15.39-17.09,7.11-4.07,16.83-5.43,24.42-2.03,9.74,4.37,13.15,15.75,8.78,24.29-4.38,8.54-14.97,14.04-25.88,15.41-10.91,1.36-22.06-.91-32.24-4.49-20.36-7.15-38.02-19.66-49.88-35.34"/><g><path class="e" d="M309.69,171.01c-21.96,12.8-48.92,19.4-75.6,18.5-11.43-.38-23.45-2.36-31.95-8.82s-11.81-18.47-4.54-25.92c5.97-6.1,17.47-7.14,25.6-3.2,8.13,3.94,12.79,11.95,13.06,19.86,.64,18.68-19.57,32.81-39.01,41.8-20.73,9.58-42.9,16.94-65.81,21.85"/><path class="e" d="M547.38,217.73c30.56-1.2,60.79-8.17,87.83-20.26,8.2-3.67,16.26-7.91,22.18-13.94,5.92-6.03,9.44-14.15,7.44-21.8-3.65-13.89-25.64-20.45-40.59-13.86-14.94,6.6-21.7,22.6-18.8,36.61,2.9,14.02,13.77,26.06,26.56,35.33,12.79,9.27,27.63,16.27,41.6,24.25,13.97,7.98,27.43,17.28,35.76,29.65"/><path class="e" d="M313.55,167.82c28.53-31.42,84.74-42.14,126.52-24.12,11.24,4.85,21.61,11.69,27.91,20.91,6.31,9.22,8.03,21.04,2.49,30.6-5.54,9.56-19.09,15.88-31.28,13.1-12.18-2.78-20.18-15.62-14.4-25.08,17.08-27.96,61.93,3.58,76.69,15.33,11.73,9.34,25.45,18.47,41.56,19.13"/></g><path class="c" d="M373.54,325.83c-5.5-.96-5.17,9.11-.79,11.87-3.45-.07-6.97-3.99-10.75-3.34-3.65,.63-4.22,5.32-1.71,7.64,2.51,2.32,6.53,2.87,10.22,3.3,3.69,.43,7.72,1.04,10.14,3.43l.7,.12c1.05-8.14,1.68-21.36-7.82-23.02Z"/><path class="c" d="M1023.11,289.36c-3.35-3.8-11.05,3.89-9.95,8.41-2.52-1.99-2.05-6.89-5.39-8.52-3.23-1.58-7.34,1.6-7.3,4.74,.05,3.14,2.61,5.81,5.03,8.2,2.41,2.4,4.94,5.11,4.87,8.25l.43,.48c7.2-5.48,18.11-15,12.32-21.57Z"/><path class="c" d="M1174.03,140.5c-1.28-6.12-15.68-.91-17.55,4.94,.72-3.73,2.39-9.11-.39-12.68-2.69-3.45-9.74-1.76-11.87,1.95s-.98,8.11,.18,12.12c1.16,4.01,.12,12.88,.12,12.88,12.28-2.87,31.72-8.63,29.5-19.21Z"/><path class="c" d="M762.22,77.18c-5.59-4.05-12.81,7.68-9.86,13.2-1.85-3.36-4.99-8.33-9.83-9.6-4.67-1.23-8.86,3.84-7.72,7.85s5.34,6.8,9.25,9.28c3.91,2.48,9.77,9.9,9.77,9.9,7.35-8.78,18.06-23.63,8.39-30.63Z"/><path class="d" d="M989.87,502.48c-5.32-1.53-6.48,8.49-2.54,11.69-3.42-.43-6.33-4.69-10.17-4.44-3.72,.24-4.97,4.83-2.82,7.4,2.15,2.57,6.06,3.53,9.66,4.35,3.6,.82,7.5,1.84,9.56,4.47l.68,.19c2.24-7.96,4.82-21.02-4.36-23.66Z"/><path class="d" d="M142.7,72.73c-2.11-4.39-11.85,1.42-12.14,6.03-1.85-2.46,.07-7.11-2.68-9.4-2.65-2.21-7.58-.01-8.48,3.04-.89,3.05,.8,6.17,2.42,9.01,1.62,2.83,3.26,5.99,2.25,9.02l.27,.56c8.61-3.78,22-10.67,18.36-18.26Z"/><path class="f" d="M578.15,298.62c-2.16-4.5-12.15,1.46-12.45,6.18-1.9-2.52,.07-7.28-2.74-9.63-2.72-2.27-7.77-.01-8.69,3.12-.92,3.13,.82,6.33,2.48,9.23,1.66,2.9,3.34,6.14,2.3,9.24l.27,.57c8.82-3.87,22.55-10.94,18.82-18.71Z"/></svg>