<?xml version="1.0" encoding="UTF-8"?><svg id="a" xmlns="http://www.w3.org/2000/svg" viewBox="0 0 488.22 502.32"><defs><style>.b{fill:#e69bdf;}.c{fill:#cdadd2;}.d{fill:#a985b8;}.e{fill:#bf9bc8;}.f{fill:#e0c7e1;}.g{fill:#784431;}.h{fill:#a9602f;stroke:#000;stroke-miterlimit:10;}</style></defs><path class="g" d="M230.26,412.22c10.02,2.65,20,2.56,30.26-.46-4.96,3.79-22.79,4.62-30.26,.46Z"/><path class="g" d="M267.73,411.3c-2.14,.63-4.37,.68-6.56,.98-.86,.12-1.74,.42-2.66,.11,1.44-.7,3.01-.72,4.56-.91,1.55-.19,3.09-.42,4.63-.64l.02,.45Z"/><path class="g" d="M223.35,410.84c2.06,.29,4.17,.1,6.22,.58,0,.15-.02,.3-.02,.46-2.08-.12-4.17-.08-6.22-.58l.02-.45Z"/><path class="g" d="M233.89,411.57c.66,.13,1.42-.14,2.13,.47-.83,.43-1.49,.24-2.15-.02l.02-.44Z"/><path class="g" d="M241.17,412.24c-.73-.02-1.48,.02-2.46-.46,1.04-.45,1.76-.19,2.48,.01l-.02,.45Z"/><path class="g" d="M229.54,411.88c0-.15,.02-.3,.02-.46,.59-.08,1.19-.11,1.77,.05v.41c-.59,0-1.2,0-1.8,0Z"/><path class="g" d="M233.89,411.57l-.02,.44c-.6,.07-1.21,.12-1.79-.1-.02-.12-.02-.24,0-.36,.6,0,1.21,.01,1.81,.02Z"/><path class="g" d="M241.17,412.24l.02-.45c.61-.09,1.22-.1,1.83,.01-.02,.15-.03,.29-.05,.44-.6,0-1.2,0-1.81,0Z"/><path class="g" d="M267.73,411.3l-.02-.45c.47-.07,.94-.15,1.42-.22,0,.16,.01,.33,.02,.49-.47,.06-.94,.13-1.41,.19Z"/><path class="g" d="M232.07,411.56c-.02,.12-.02,.24,0,.36l-.73-.04v-.41c.25-.12,.49-.02,.73,.09Z"/><path class="g" d="M223.35,410.84l-.02,.45c-.36,.06-.72,.06-1.06-.1v-.39c.37,.01,.73,.02,1.09,.04Z"/><path class="c" d="M190.49,288.69c-.66-1.22-.4-2.6-.59-3.89-.55-3.69-.8-7.43-1.22-11.14-.42-3.65-.91-7.29-1.36-10.94-.07-.54-.03-1.09-.09-1.63-.12-1.2-.37-2.32-1.17-3.34-1.56-1.97-2.38-4.32-3.14-6.68-.44-1.38-.84-2.76-1.29-4.14-.81-2.49-.97-5.08-1.24-7.65-.19-1.88,.23-3.74,.42-5.59,.31-3.11,.92-6.19,1.41-9.28,.03-.16,.19-.29,.3-.43,.68-.12,.99,.4,1.3,.81,3.96,5.1,9.3,8.46,14.87,11.41,4.5,2.38,8.87,4.96,13.24,7.56,6.68,3.98,13.81,5.11,21.47,4.26,7.48-.83,14.59-2.85,21.49-5.72,5.19-2.15,10.58-3.46,16.18-3.82,3.57-.23,6.92,.96,10.3,1.9,5.15,1.44,9.91,3.88,14.83,5.89,2.53,1.03,5.13,1.82,7.78,2.45,.68,.16,1.65,0,1.8,1.1-.46,2.39-1.31,4.69-2.72,6.62-1.27,1.74-1.41,3.64-1.64,5.58-.39,3.22-.68,6.45-1.05,9.66-.14,1.19,.17,2.43-.42,3.56-.34,.35-.7,.69-1.18,.81-5.91,1.53-10.61,5.24-15.44,8.66-4.69,3.32-9.11,7.03-14.01,10.07-6.41,3.98-13.4,5.93-20.86,6.83-6.87,.83-12.91-1.34-18.86-4.15-5.04-2.38-10.08-4.75-15.3-6.72-7.38-2.78-14.91-4.23-22.74-2.03-.35,.1-.71,.19-1.06,0Z"/><path class="d" d="M296.69,306.89c-.03,.47-.05,.95-.08,1.42-.32,.59,.05,1.28-.27,1.87-.06,3.33-.66,6.61-.92,9.93-.23,2.89-.61,5.77-.93,8.65-.46,4.2-.92,8.41-1.37,12.61-.4,3.79-.78,7.57-1.18,11.36-.44,4.08-.91,8.16-1.34,12.25-.41,3.85-.79,7.69-1.2,11.54-.09,.9-.28,1.8-.31,2.7-.06,1.89-.56,3.73,.22,5.69,.65,1.64-.14,3.3-1.38,4.64-1.77,1.91-4,3.11-6.33,4.15-4.78,2.14-9.83,3.37-14.93,4.36-4.86,.95-9.78,1.5-14.72,1.92-3.75,.32-7.5,.42-11.24,.22-9.61-.52-19.14-1.67-28.33-4.71-2.88-.95-5.66-2.14-8.17-3.88-1.06-.74-1.97-1.61-2.62-2.73-.76-1.31-1.15-2.7-.46-4.15,.5-1.06,.38-2.14,.25-3.21-.79-6.54-1.62-13.07-2.41-19.61-.66-5.52-1.26-11.04-1.92-16.56-.66-5.58-1.44-11.14-2.02-16.73-.41-3.97-1.1-7.9-1.26-11.89-.25-2.25-.12-2.4,1.98-2.07,8.68,1.35,15.68,5.62,21.53,12.09,3.16,3.5,6,7.27,9.33,10.63,5.29,5.34,11.67,8.47,19.14,8.91,6.84,.41,13.12-1.72,18.83-5.5,7.05-4.66,12.65-10.82,17.86-17.38,4.21-5.31,7.98-10.96,12.24-16.22,.3-.38,.57-.79,.96-1.09,.28-.22,.61-.53,.96-.33,.46,.27,.29,.72,.12,1.12Z"/><path class="f" d="M305.77,249.8c-1.48-.88-3.21-.92-4.81-1.37-2.57-.73-5.03-1.7-7.45-2.78-5.62-2.53-11.3-4.87-17.36-6.14-2.24-.47-4.44-.58-6.78-.37-4.5,.4-8.77,1.53-12.97,3.06-2.72,.99-5.36,2.18-8.13,3.07-4.71,1.51-9.48,2.63-14.43,3.15-3.15,.33-6.28,.3-9.4,.23-2.4-.06-4.72-.85-6.98-1.73-4.31-1.67-8.18-4.14-12.1-6.51-2.18-1.31-4.45-2.43-6.68-3.64-4.79-2.58-9.38-5.48-13.25-9.36-1.06-1.06-1.95-2.29-2.92-3.44,.01-.99,.39-1.91,.78-2.77,1.14-2.45,2.2-4.98,3.67-7.24,2.33-3.61,5.83-5.45,10.16-5.61,.36-.01,.73-.02,1.09,0,.77,.03,1.25-.26,1.44-1.06,.51-2.14,1.64-4.01,2.73-5.89,1.39-2.39,3.21-4.33,5.69-5.67,2.36-1.28,4.89-1.49,7.39-1.06,1.58,.27,2.54-.09,3.42-1.24,1.78-2.61,4.63-3.28,7.42-3.6,3.21-.37,6.48-.3,9.52,1.32,1.28,.68,1.73,1.49,1.51,2.89-.98,6.15-2.26,12.24-3.42,18.35-.68,3.6-.1,4.71,3.45,5.36,3.11,.57,6.25,1.6,9.47,.47,.53-.09,1.05-.13,1.47,.31,.6-.02,1.22,.03,1.81-.07,1.04-.18,1.41-.66,1.49-1.73,.2-2.7,.84-5.34,1.25-8.01,.25-1.64,.87-3.24,.28-4.97-.26-.76-.19-1.71,0-2.52,.64-2.76,.84-5.58,1.38-8.35,.13-.69,.44-.91,1.08-.91,2.85,0,5.33,1.05,7.4,2.91,1.47,1.32,3,2.63,4.09,4.34,.66,1.02,1.63,.79,2.61,.62,3.66-.62,7.28-.61,10.84,.61,1.92,.66,3.63,1.62,5.02,3.12,.49,.53,1.07,.99,1.52,1.55,1.05,1.32,2.32,1.71,4.05,1.85,3.54,.27,6.47,1.92,8.76,4.81,2.02,2.55,3.12,5.39,3.63,8.54,.09,.54,.16,1.11-.05,1.62-.43,1.04-.09,1.88,.54,2.69,.26,.33,.44,.75,.74,1.02,1.84,1.68,2.6,3.86,2.81,6.25,.2,2.34,.41,4.67,.44,7.03,.05,3.81-.91,7.36-2.2,10.87Z"/><path class="e" d="M296.69,306.89c-.04-.29-.07-.58-.13-1.02-1.3,.88-1.98,2.11-2.79,3.18-3.27,4.32-6.38,8.77-9.72,13.04-2.04,2.6-4.24,5.1-6.35,7.64-2.96,3.56-6.42,6.57-9.99,9.42-4.67,3.72-9.99,6.32-15.96,7.28-7.36,1.19-14.16-.47-20.35-4.48-3.09-2-5.7-4.6-8.07-7.47-1.99-2.41-4.1-4.75-6.16-7.11-2.25-2.58-4.77-4.76-7.5-6.75-4.39-3.19-9.42-4.77-14.7-5.7-.75-.13-1.18,.06-1.17,.9,0,.3-.03,.6-.05,.91-.65-1.22-.37-2.59-.57-3.88-.54-3.56-.81-7.16-1.23-10.73-.42-3.64-.91-7.26-1.34-10.9-.1-.83-.08-1.68-.12-2.52,2.03-1.05,4.28-1.12,6.47-1.44,3.81-.55,7.5,.28,11.2,1.08,4.4,.94,8.45,2.81,12.56,4.53,5.29,2.21,10.3,5.06,15.73,6.93,1.87,.65,3.8,1.07,5.8,1.29,7.08,.76,13.75-.89,20.26-3.35,5.36-2.02,9.95-5.4,14.45-8.85,4.83-3.71,9.73-7.32,14.93-10.48,2.5-1.52,5.23-2.46,8.05-3.17-.02,.61-.04,1.22-.06,1.83-.33,.58,.06,1.27-.29,1.85-.05,3.44-.66,6.83-.97,10.25-.26,2.88-.6,5.75-.87,8.63-.27,2.88-.73,5.74-.83,8.63,0,.16-.16,.32-.24,.47Z"/><path class="b" d="M266.47,109.85c-1.64,3.69-2.31,7.63-2.94,11.58-1.64,2.02-4.06,2.97-6.16,4.31-2.59,1.64-5.28,3.13-8.06,4.46-2.31,1.1-2.65,.86-2.61-1.68,0-.41-.09-.85,.13-1.24,.27-2.89,.54-5.79,.81-8.68,.33-.85,1.16-.99,1.87-1.28,4.95-2.05,9.85-4.19,14.5-6.88,.73-.42,1.48-1.15,2.48-.59Z"/><path class="b" d="M268.68,98.22c-4.95,3.23-10.03,6.25-15.39,8.75-1.15,.53-2.32,1.01-3.46,1.56-1.01,.48-1.13-.14-1.19-.89,.27-1.92,.53-3.84,.8-5.77,.65-1.19,1.96-1.57,2.95-2.32,4.72-3.57,9.42-7.16,14.05-10.85,.52-.41,.98-1.18,1.85-.64,1.19,1.55,1.21,3.36,1.13,5.18-.08,1.68-.26,3.35-.73,4.98Z"/><path class="b" d="M238.86,182.16c4.02-2.43,8.04-4.84,12.04-7.29,1.28-.79,2.51-1.66,3.76-2.5,.35-.23,.66-.54,1.33-.43,0,.73,0,1.49,0,2.26-.36,2.54-.52,5.1-1.13,7.61-.65,1.34-1.98,1.92-3.1,2.69-3.71,2.58-7.46,5.12-11.38,7.37-.31,.18-.63,.36-.96,.51-1.62,.74-2.05,.47-2.05-1.31,0-.3,.05-.6,.04-.9,.21-2.27,.88-4.49,.74-6.8-.03-.48,.29-.91,.71-1.21Z"/><path class="b" d="M260.28,141.08c-4.02,2.53-8.03,5.06-12.06,7.58-.96,.6-1.97,1.13-2.94,1.68-.3-.28-.2-.61-.28-.89,.46-3,.28-6.06,.77-9.06,4.97-1.89,9.73-4.19,14.28-6.95,.51-.31,1.01-.67,1.66-.65-.38,2.78-.86,5.55-1.44,8.29Z"/><path class="b" d="M236.33,203.27c.56-.35,1.1-.75,1.69-1.04,4.51-2.2,8.78-4.8,12.95-7.56,.25-.17,.51-.32,.76-.48,1.05-.71,.86,.2,.97,.73-.53,2.27-.78,4.59-1.12,6.89-.39,.77-.98,1.34-1.71,1.8-4.2,2.69-8.41,5.36-12.63,8.02-.61,.38-1.32,1.07-1.98,0-.23-2.86-.18-5.69,1.07-8.36Z"/><path class="b" d="M242.84,161.42c3.91-2.24,7.83-4.48,11.74-6.74,.94-.54,1.83-1.15,2.76-1.71,.58-.35,.74,.04,.83,.51-.25,2.18-.5,4.35-.75,6.53-5.22,3.84-10.51,7.58-16.11,10.85-.21,.12-.39,.31-.61,.05-.65-1.07,.07-2.07,.21-3.08,.27-1.88,.78-3.71,1.24-5.55,.1-.41,.14-.84,.7-.87Z"/><path class="b" d="M246.86,218.62c-.77-.05-1.59-.12-2.13-.71-.72-.79-1.59-.92-2.56-.88,.02-.06,.03-.13,.07-.16,2.47-1.97,5.31-3.37,8.15-5.46,.06,1.54,.1,2.71,.15,3.87-.09,1.55-1.16,2.41-2.27,3.24-.47,.03-.95,.06-1.42,.09Z"/><path class="b" d="M258.43,84.45c-.41,.77-1.08,1.27-1.77,1.77-1.1,.81-2.17,1.65-3.28,2.49-.54-.61-.24-1.26-.4-1.81,.46-1.8,1.78-2.43,3.48-2.5,.65-.03,1.31,.02,1.97,.04Z"/><path class="c" d="M299.59,278.9c.02-.63-.24-1.3,.29-1.85,.02,.63,.19,1.29-.29,1.85Z"/><path class="e" d="M296.33,310.18c0-.64-.25-1.31,.27-1.87,.03,.64,.18,1.3-.27,1.87Z"/><path class="h" d="M216.96,385.41c-1.53,.13-2.9-.49-3.89-1.73-1.26-1.58-2.57-3.07-2.66-5.37-.09-2.47,2.85-5.46,5.98-4.82,2.66,.55,4.57,2.14,5.6,4.66,1.48,3.64-.99,7.25-5.03,7.26Z"/><path class="h" d="M282.52,369.15c.25,2.64-1.7,5.21-4.9,5.32-2.37,.08-5.58-2.98-5.4-5.99,.16-2.66,2.62-4.96,5.62-4.93,2.66,.03,4.69,2.45,4.69,5.6Z"/><path class="h" d="M244.34,385.48c0,2.67-2.09,4.64-4.95,4.63-3.1,0-5.57-2.32-5.61-5.24-.03-2.77,2.15-4.95,4.94-4.92,2.98,.02,5.61,2.61,5.61,5.53Z"/><path class="h" d="M261.44,386.13c-2.45,.44-5.32-2.69-5.19-5.14,.14-2.62,2.64-5.4,5.12-5.4,2.53,0,5.12,2.72,5.03,5.43-.1,3.15-2.7,5.45-4.97,5.11Z"/><path class="h" d="M251.99,367.88c0,2.69-2.09,4.77-4.81,4.77-2.85,0-4.61-1.98-4.76-5.01-.12-2.33,1.77-5.03,4.2-4.9,2.46,.13,5.67,1.92,5.37,5.13Z"/><path class="h" d="M233.05,369.53c0,1.93-1.53,3.5-3.38,3.46-1.76-.03-2.81-1.26-2.8-3.26,0-2.08,1.27-3.62,2.96-3.62,1.78,0,3.22,1.52,3.23,3.41Z"/><path class="h" d="M274.82,389.41c-1.61,.3-3.31-1.89-3.2-3.22,.12-1.53,1.39-2.7,3.02-2.68,1.78,.02,3.01,1.18,3.06,2.87,.05,1.64-1.28,3.04-2.87,3.03Z"/><path class="h" d="M211.59,363.38c0,1.26-.88,2.31-1.99,2.35-1.38,.04-2.66-1.18-2.71-2.59-.04-1.13,1.1-2.34,2.25-2.39,1.19-.05,2.44,1.29,2.45,2.63Z"/><path class="g" d="M172.43,221.64c-.19,.93,.41,1.27,1.13,1.51,2.07,.69,4.21,1.13,6.35,1.48,8.13,1.34,16.32,2,24.53,2.65,11.91,.94,23.83,1.27,35.76,1.05,6.78-.13,13.56,.16,20.34-.13,7.02-.3,14.03-.65,21.03-1.23,6.27-.52,12.53-1.13,18.78-1.92,4.26-.54,8.5-1.22,12.66-2.29,.47-.12,.92-.29,1.37-.46,1.41-.54,1.37-.53,.71-1.98-.25-.54-.34-1.15-.45-1.74-2.76-14.62-9.22-27.44-19.05-38.55-9.2-10.39-20.29-18.06-33.38-22.78-.73-.26-1.44-.62-2.43-.63-.51,2.72-1.02,5.46-1.55,8.35,1.62-.07,2.97-.51,4.27-1.11,1.05-.48,1.13-1.07,.48-2.03-.38-.57-.96-.91-1.48-1.32q-1-.78-1.41-2.1c1.44,.72,2.81,1.32,3.81,2.45,1.47,1.66,1.1,3.32-.95,4.2-2.31,.99-4.78,1.44-7.26,1.43-6.69-.01-13.26-.93-19.65-2.99-.86-.28-1.71-.61-2.42-1.21-1.32-1.12-1.42-2.38-.15-3.56,1.7-1.59,3.79-2.33,6.11-2.39,.66-.02,1.33-.06,1.95,.21q.63-2.4-.96-3.29c.46-.41,1.04,.02,1.56-.26,.74-5.29,1.48-10.62,2.22-15.95,.92-6.65,1.84-13.3,2.74-19.96,1.04-7.61,2.07-15.23,3.09-22.84,.29-2.16,.56-4.32,.83-6.48,.07-.58,.24-1.12-.08-1.75-.38-.74,.06-1.39,.73-1.84,.84-.57,1.81-.79,2.77-.74,3.69,.19,7.38,.4,10.91,1.64,1.15,.4,2.27,.85,3.23,1.62,1.17,.93,1.67,2.14,1.44,3.65-1.9,12.5-3.75,25.01-5.68,37.51-1.35,8.79-2.77,17.57-4.23,26.34-.17,1.01,.1,1.39,1.01,1.67,22.67,6.92,42.7,26.32,51.31,49.65,1.43,3.87,2.56,7.81,3.2,11.89,.15,.95,.56,1.14,1.48,1.35,3.8,.88,6.4,2.55,6.54,6.71,.07,2.05-.03,4.12,.66,6.11,.26,.76,.58,1.45,1.11,2.05,.68,.76,.66,.98-.17,1.62-1.25,.96-2.58,1.8-4.01,2.47-1.04,.49-2.07,1.02-3.16,1.35-1.06,.33-1.49,.92-1.73,2-1.16,5.19-2.44,10.34-4.31,15.33-.19,.51-.31,1.09-.64,1.49-1.19,1.45-1.28,3.18-1.46,4.92-1.29,12.58-2.83,25.14-4.4,37.69-1.4,11.23-2.73,22.47-4.12,33.7-1.02,8.23-2.11,16.45-3.13,24.68-1.16,9.31-2.27,18.62-3.41,27.94-.26,2.1-.53,4.2-.8,6.3-.11,.84-.3,1.6-.83,2.34-.99,1.37-1.08,3.06-1.2,4.68-.13,1.69-.49,3.36-.42,5.06,.03,.76-.35,1.34-.9,1.89-1.21,1.21-2.62,2.17-4.08,3.01-2.98,1.73-6.1,3.14-9.45,4.09-5.48,1.55-11.04,2.66-16.69,3.36-5.05,.62-10.11,1.25-15.18,1.27-4.04,.02-8.1-.25-12.13-.75-4.44-.56-8.93-.85-13.29-1.86-4.7-1.08-9.44-2.06-13.8-4.3-2-1.03-3.88-2.22-5.7-3.53-1.29-.92-1.83-2.14-1.84-3.72-.01-2.12-.34-4.22-.72-6.3-.18-.96-.41-1.92-1.11-2.64-.52-.54-.54-1.2-.63-1.85-1.63-11.99-3.23-23.99-4.86-35.98-1.39-10.13-2.83-20.26-4.22-30.39-1.4-10.25-2.77-20.51-4.14-30.77-1.18-8.82-2.35-17.64-3.5-26.46-.32-2.46-.56-4.93-.83-7.39-.15-1.38-.36-2.69-1.27-3.88-.84-1.09-1.18-2.51-1.61-3.82-1.45-4.36-2.72-8.77-3.73-13.25-.23-1.03-.69-1.63-1.72-1.99-2.52-.87-4.93-1.99-7.07-3.62-1.05-.8-1.03-.77-.24-1.83,1.05-1.41,1.38-3.08,1.47-4.78,.07-1.15-.04-2.31,.05-3.45,.2-2.51,1.15-4.51,3.66-5.58,1.15-.49,2.11-1.34,3.52-1.16,.81,.1,.66-.73,.73-1.21,.47-2.99,1.16-5.93,2.06-8.82,4.34-13.88,11.93-25.72,22.44-35.72,9.7-9.22,20.93-15.74,33.93-19.1,2.52-.65,5.07-1.15,7.67-1.35,.28-.02,.6-.16,.88,.3-.49,.34-1.09,.39-1.62,.48-14.86,2.54-27.66,9.26-38.73,19.34-12.65,11.53-21.03,25.62-24.87,42.35-.32,1.41-.58,2.84-.84,4.27-.11,.6-.14,1.22-.84,1.48-.67-.82-1.54-.67-2.28-.29-.66,.35-1.61,.69-1.66,1.53-.05,.93,.95,1.16,1.63,1.47,2.32,1.06,4.78,1.7,7.27,2.21,7.18,1.46,14.45,2.31,21.75,2.97,8.99,.81,18,1.37,27.02,1.59,13.93,.34,27.86,.25,41.78-.52,13.06-.73,26.09-1.76,38.98-4.06,3.57-.64,7.11-1.41,10.48-2.82,.67-.28,1.33-.57,1.89-1.05,.44-.38,.51-.83,.05-1.24-.77-.71-1.63-1.27-2.73-1.23-.56,.02-1.03,.21-.45,.85,.6,.68,.19,1.15-.35,1.48-.56,.34-1.2,.57-1.82,.79-2.53,.86-5.15,1.34-7.77,1.77-8.9,1.46-17.86,2.41-26.85,3.04-6.64,.46-13.29,.85-19.95,1.02-5.15,.13-10.3-.06-15.44,.03-6.36,.12-12.71,.27-19.07,.09-6.72-.19-13.43-.49-20.14-.94-6.03-.41-12.06-.96-18.06-1.79-4.01-.56-8.03-1.07-11.95-2.15-.87-.24-1.76-.47-2.52-1-.84-.58-.79-.9,.2-1.7Zm7.35,21.49c-.09-.06-.22-.19-.28-.17-.22,.09-.16,.27-.09,.45,.7,2.69,1.38,5.38,2.09,8.06,.74,2.81,1.9,5.36,4.56,6.92,.15,.09,.29,.22,.41,.36,.11,.13,.27,.25,.14,.47-.15,.26-.37,.27-.61,.17-.27-.12-.57-.22-.81-.39-1.67-1.17-2.99-2.58-3.72-4.56-1.08-2.96-1.9-6.01-2.44-9.09-.36-2.09-1.2-3.24-3.3-3.48-1.1-.12-2.07-.88-3.28-.8,.13,.49,.22,.84,.31,1.19,1.42,5,2.75,10.02,4.72,14.84,.9,2.21,2.44,3.7,4.79,4.31,.64,.17,1.24,.45,1.85,.7,.17,.07,.24,.25,.2,.46-.04,.24-.23,.27-.4,.26-.36-.03-.71-.11-1.07-.16-1.27-.19-2.44-.74-3.77-1.28,.14,1.01,.24,1.78,.35,2.55,1.04,6.94,2.11,13.87,3.11,20.82,1.06,7.43,2.04,14.87,3.06,22.3,1.27,9.23,2.58,18.46,3.84,27.69,1.28,9.35,2.5,18.71,3.77,28.06,1.4,10.31,2.86,20.62,4.23,30.93,.17,1.3,.72,2.09,1.81,2.69,3.4,1.86,6.91,3.4,10.7,4.35,6.65,1.65,13.35,2.81,20.2,3.2,4.83,.27,9.69-.03,14.5,.65,.41,.06,.86,.05,1.27-.03,3.59-.69,7.25-.41,10.87-.62,3.99-.23,7.96-.68,11.93-1.07,3.79-.37,7.41-1.68,11.13-2.48,3.94-.84,7.53-2.56,11.01-4.54,.93-.53,1.66-1.14,1.78-2.33,.34-3.19,.74-6.37,1.14-9.55,.78-6.31,1.57-12.61,2.36-18.91,.78-6.24,1.58-12.49,2.35-18.73,.79-6.43,1.55-12.86,2.35-19.28,.78-6.31,1.59-12.61,2.38-18.91,.9-7.21,1.77-14.42,2.71-21.62,1.01-7.74,2.1-15.47,3.11-23.2,.12-.93,.53-1.85,.27-2.91-1.54,1.17-3.27,1.45-5.11,1.72,.07-1.18,.92-1.16,1.47-1.3,3.02-.71,4.69-2.69,5.69-5.52,1.66-4.68,2.94-9.46,4.22-14.24,.07-.27,.2-.58-.09-.96-1.21,.38-2.43,.94-3.71,1.14-1.61,.26-2.08,1.18-2.36,2.63-.65,3.32-1.38,6.62-2.5,9.82-.7,1.99-2.03,3.41-3.69,4.57-.38,.27-.84,.76-1.48,.22,.35-.84,1.16-1.2,1.78-1.71,1.11-.9,1.96-1.95,2.44-3.31,1.24-3.54,2.1-7.18,2.84-10.85,.12-.1,.24-.24,.1-.36-.07-.06-.26,0-.4,.02-2.88,.68-5.75,1.39-8.64,2.05-7.79,1.76-15.69,2.95-23.62,3.91-6.31,.77-12.64,1.33-19,1.59-5.75,.23-11.51,.08-17.26,.23-8.79,.22-17.55-.36-26.29-1.26-7.83-.81-15.62-1.85-23.34-3.38-3.55-.71-7.09-1.53-10.63-2.29Zm74.03,5.45c-.21-3.29-.07-6.25,.39-9.18,.18-1.13,.4-2.27,1.03-3.26,.75-1.18,1.63-1.46,2.95-1.04,1.45,.46,2.31,1.51,2.83,2.86,.81,2.1,1.27,4.29,1.48,6.52,.08,.82,.07,1.69-.54,2.42-.29-.28-.26-.53-.26-.77,0-2.65-.75-5.13-1.66-7.57-.24-.63-.56-1.21-1.06-1.67-1.39-1.27-2.51-1-3.14,.78-.24,.68-.44,1.39-.51,2.11-.3,2.85-.55,5.71-.82,8.62,5.63,0,11.12-.41,16.6-.89,10.14-.89,20.18-2.39,30.11-4.64,6.37-1.44,12.68-3.09,18.66-5.8,1.53-.69,3.05-1.4,4.47-2.49-1.08-1.39-1.5-2.97-1.72-4.59-.15-1.07-.05-2.18-.11-3.26-.09-1.54-.18-3.09-1.42-4.43-.9,1.56-2.3,2.27-3.78,2.83-1.02,.38-2.04,.74-3.09,1.03-6.43,1.8-13.01,2.75-19.62,3.57-11.31,1.4-22.67,2.1-34.04,2.56-10.9,.43-21.8,.56-32.7,.19-6.96-.24-13.92-.46-20.87-.93-6.22-.42-12.43-1.02-18.62-1.81-5.1-.66-10.18-1.49-15.14-2.89-2.36-.66-4.76-1.35-6.35-3.64-.25,.44-.45,.73-.6,1.04-.68,1.41-.62,2.94-.64,4.45-.03,2.2-.16,4.37-1.4,6.28-.4,.62-.06,.85,.39,1.12,1.88,1.11,3.85,2.02,5.89,2.79,8.58,3.24,17.53,5.01,26.54,6.53,6.51,1.1,13.06,1.84,19.64,2.37,5.74,.46,11.48,.68,17.33,.81-.71-2.58-.45-5.2-.9-7.75-.21-1.2-.4-2.39-.89-3.51-.5-1.14-1.23-1.32-2.35-.73-.93,.49-1.4,1.33-1.72,2.25-.81,2.35-1.53,4.72-1.49,7.24,0,.36,.11,.79-.33,1.08-.39-.47-.46-.96-.47-1.42-.06-3.01,.58-5.89,1.84-8.61,.4-.85,1.13-1.41,1.98-1.79,1.52-.67,2.72-.25,3.49,1.22,.63,1.2,.82,2.52,1.02,3.83,.42,2.68,.44,5.37,.38,8.28,6.43-.25,12.76-.33,19.22-.14Zm-1.42-161.09c-.15,.38-.25,.54-.28,.71-.65,4.73-1.29,9.47-1.92,14.2-.78,5.87-1.54,11.75-2.32,17.62-.92,6.95-1.84,13.91-2.76,20.86-.92,6.94-1.67,13.9-2.92,20.8-.11,.59-.02,1.59-.8,1.5-.62-.08-.3-1.04-.26-1.59,.12-1.62,.33-3.23,.53-5.06-1.01,.43-1.91,.47-2.76,.67-1.77,.43-3.49,1.05-4.82,2.37-.81,.8-.78,1.19,.02,1.96,.63,.61,1.44,.85,2.24,1.14,3.9,1.4,7.99,1.89,12.07,2.34,2.4,.27,4.81,.57,7.24,.39,1.6-.12,1.62-.13,1.75-1.65,.35-4.04,1-8.04,1.6-12.05,1.24-8.25,2.55-16.49,3.85-24.74,1.66-10.51,3.34-21.02,5.01-31.53,.27-1.7,.52-3.4,.78-5.08-5.81,.82-10.99-1.01-16.26-2.88Zm32.29,312.67c-.36,.07-.65,.11-.92,.2-4.15,1.29-8.39,2.33-12.64,3.16-7.07,1.37-14.26,1.88-21.48,1.84-4-.02-7.99,.03-11.99,.04-6.12,.02-12.22-.5-18.25-1.5-3.51-.58-6.95-1.56-10.42-2.38-1.14-.27-2.27-.59-3.43-.89-.22,1.21,.13,2.16,.65,3.07,.58,1.03,1.44,1.77,2.35,2.49,.71,.56,1.41,1.13,2.03,2.11-4.12-1.11-6.2-3.66-6.24-7.4,0-.55-.09-.85-.69-1.05-1.55-.53-3.14-.99-4.76-1.82,.39,2.66,.8,5.11,.78,7.59,0,.79,.33,1.36,.98,1.83,3.57,2.55,7.42,4.56,11.61,5.83,7.85,2.38,15.97,3.26,24.09,4.06,9.23,.91,18.36-.13,27.49-1.3,4.51-.58,8.89-1.73,13.26-2.92,4.49-1.22,8.5-3.4,12.3-6.03,.82-.57,1.18-1.28,1.15-2.29-.02-1.02,.13-2.05,.23-3.07,.13-1.39,.29-2.77,.46-4.42-1.4,1.1-2.86,1.34-4.21,1.85-.82,.31-1.29,.58-1.12,1.63,.29,1.88-.54,3.43-1.9,4.68-.94,.86-2,1.57-3.14,2.13-.27,.13-.57,.54-.98-.02,.69-.98,1.7-1.65,2.59-2.45,1.44-1.3,2.46-2.8,2.2-4.96ZM252.1,85.55c.42,.8,1.03,1.2,1.81,1.49,3.81,1.4,7.7,2.41,11.79,2.56,.67,.02,1.34,0,1.97-.21,.98-.32,1.08-.89,.3-1.55-.7-.59-1.54-.94-2.39-1.26-3.67-1.38-7.52-1.64-11.38-1.82-.74-.03-1.43,.14-2.1,.8Z"/><path class="g" d="M240.5,167.07c-.22,4.05-.99,8.04-1.55,12.06-.58,4.07-1.18,8.14-1.78,12.2-.6,4.07-1.2,8.14-1.8,12.2-.6,4.07-1.2,8.13-1.8,12.2,3.98,1.83,12.03,3.49,16.57,3.38,2.5-16.78,4.95-33.6,7.96-50.33,.21,.25,.1-.12,.31,.01,.04,.02,.08,.07,.09,.12,.03,.12,.05,.24,.05,.36,0,.18-.01,.36-.04,.54-.93,6.71-1.86,13.41-2.78,20.12,0,.05,.03,.11,.05,.19,1.18,.2,2.39-.08,3.59,.23,3.35,.85,5.89,2.84,7.71,5.67,1.02,1.59,1.96,2.62,3.89,1.47,7.56-1.49,14.59,1.14,18.63,8.06,.82,1.41,1.62,2.83,2.21,4.36,.15,.4,.39,.79-.26,1.16-.71-1.33-1.42-2.66-2.15-3.98-1.12-2.03-2.45-3.91-4.24-5.39-4.77-3.95-10.17-4.6-16.15-3.02,.73,1.99,1.57,3.8,1.91,5.76,.32,1.81,.77,3.63,.4,5.48-.56-2.18-.91-4.37-1.47-6.52-.92-3.55-2.78-6.57-5.3-9.15-2.14-2.19-4.73-3.52-7.93-3.36-.72,.04-1.11,.22-1.22,.99-.98,6.82-1.99,13.64-2.99,20.46,0,.05,.03,.11,.05,.17,1.61-.16,3.02,.24,4.17,1.49-1.39-.34-2.78-.68-4.26-1.04-.52,1.76-.57,3.64-.97,5.46-.09,.4,.03,.67,.54,.71,2.19,.15,4.69-1.3,5.53-3.29,.13-.32,.25-.56,.6-.54,.49,.03,.51,.43,.51,.8,0,.64-.33,1.14-.72,1.62-1.05,1.29-2.47,1.9-4.02,2.3-2.2,.56-4.43,.46-6.66,.23-5.87-.62-11.48-2.28-16.95-4.44-.99-.39-1.76-1.05-2.34-1.92-.39-.58-.51-1.22-.29-1.9,.08-.25,.23-.43,.51-.45,.31-.03,.45,.2,.43,.44-.12,1.16,.62,1.77,1.43,2.34,2.21,1.57,2.44,1.45,2.84-1.18,1.38-8.97,2.78-17.93,4.18-26.89,.89-5.67,1.79-11.34,2.7-17.02,.12-.74,.28-1.47,.43-2.2,.14,.02,.28,.05,.42,.07Z"/><path class="g" d="M198.17,206.85c.6-4.54,2.68-8.29,6.25-11.12,3.22-2.55,6.87-3.2,10.76-1.75,.95,.35,1.46,.21,2.19-.47,3.29-3.06,7.17-4.68,11.74-4.2,1.81,.19,3.53,.8,5.21,1.5,.28,.12,.56,.24,.52,.7-1.79-.17-3.49-.83-5.25-1.14-4.59-.8-8.42,.91-11.86,3.76-.5,.42-.4,.79,.13,1.15,1.46,.99,2.78,2.14,4,3.41,.45,.46,.91,.91,1.16,1.97-1.37-1.17-2.44-2.09-3.52-3-.93-.78-1.88-1.52-2.95-2.1-4.04-2.18-8.27-1.84-11.86,1.07-2.82,2.29-4.53,5.32-5.53,8.75-.19,.64-.38,1.16-1.01,1.43l.03,.03Z"/><path class="g" d="M198.15,206.82c-.02,.71,.61,.43,.91,.53,3.7,1.2,6.03,3.87,7.76,7.18,.19,.36,.36,.77,.15,1.23-.56-.02-.57-.55-.77-.86-.99-1.52-2.02-3.01-3.38-4.24-3.22-2.91-6.91-3.31-10.67-1.2-5.64,3.16-7.21,8.23-6.46,13.58,.07,.47,.14,.94,.24,1.59-.91-.32-.94-1.06-1.08-1.59-1.9-7.18,3.54-15.06,10.91-15.96,.8-.1,1.66,.37,2.4-.23l-.03-.03Z"/><path class="g" d="M292.43,206.62c1.58-.31,2.93,.32,4.11,1.11,4.53,3.05,7.37,7.21,7.88,12.77,.09,.97,.04,1.93-.34,2.85-.1,.23-.26,.43-.55,.33-.29-.09-.28-.36-.24-.59,.89-5.22-1.44-9.22-4.84-12.8-1.48-1.56-3.28-2.63-5.42-3.07-.23-.05-.47-.1-.58-.6Z"/><path class="g" d="M183.83,204.52c-2.87,5.76-3.73,11.68-1.8,18.2-1.26-.78-1.49-1.77-1.68-2.73-.71-3.57-.34-7.09,.65-10.56,.35-1.23,.85-2.39,1.48-3.49,.32-.56,.59-1.18,1.35-1.42Z"/><path class="g" d="M213.84,215.77c1.49-.46,2.54-.02,3.2,1.17,.61,1.09,.86,2.3,.12,3.44-.76,1.19-1.96,1.57-3.31,1.34-.7-.12-1.45-.18-2.04-.68-.32-.27-.37-.63-.07-.94,.27-.28,.42-.06,.69,.14,1.04,.74,2.2,.82,3.35,.25,.73-.35,1.01-1,.95-1.8-.08-1.02-.47-1.85-1.4-2.38-.42-.24-.96-.04-1.5-.54Z"/><path class="g" d="M283.66,216.26c-.46,.15-.74-.05-1.02-.08-1.18-.1-1.8,.75-1.33,1.83,.43,1,1.27,1.59,2.25,1.97,.96,.38,1.41-.57,2.19-1.07-.71,1.85-1.57,2.29-2.99,1.62-1-.47-1.87-1.13-2.32-2.18-.47-1.1-.08-2.29,.87-2.84,.83-.48,1.29-.36,2.36,.75Z"/><path class="g" d="M224.1,203.39c.92,1.2,.84,2.73-.17,4.12-1.23,1.7-2.46,2.06-4.7,1.25,1.47-.3,2.92-.05,3.9-1.36,.9-1.21,.87-2.57,.98-4Z"/><path class="g" d="M268.29,211.49c.23,3.13-1.48,4.47-4.81,3.92,.93-.85,2.2-.15,3.04-.93,.84-.77,1.06-1.86,1.77-2.99Z"/><path class="g" d="M229.1,210.04c1.11-.43,1.94-.35,2.76-.22,.14,.02,.35,.2,.37,.34,.05,.29-.17,.42-.44,.4-.82-.07-1.68,.08-2.7-.52Z"/><path class="g" d="M276.23,395.97c.61-.92,1.27-1,1.88-1.17,1.28-.35,2.58-.66,3.84-1.06,3.22-1.03,4.95-3.6,6.26-6.43,.48-1.04,.34-2.37,.48-3.58,.78-6.55,1.56-13.1,2.34-19.65,.8-6.73,1.61-13.46,2.42-20.19,.76-6.31,1.54-12.61,2.3-18.92,.81-6.73,1.6-13.46,2.43-20.18,.76-6.24,1.56-12.48,2.34-18.73,.79-6.3,1.56-12.6,2.39-18.9,.19-1.48,.27-2.98,.8-4.69,.42,.66,.3,1.18,.25,1.63-.78,6.97-1.57,13.94-2.37,20.9-1.01,8.77-2.02,17.55-3.06,26.32-.78,6.61-1.6,13.21-2.39,19.82-.9,7.57-1.79,15.14-2.69,22.71-.77,6.43-1.55,12.85-2.31,19.28-.45,3.72-.92,7.45-1.31,11.18-.35,3.35-1.85,6.15-4.18,8.44-2.49,2.45-5.75,2.97-9.41,3.2Z"/><path class="g" d="M213.61,396.16c-3.71-.12-7.3-.64-9.92-3.71-2.27-2.66-3.32-5.77-3.71-9.25-.78-6.97-1.79-13.92-2.7-20.88-.91-6.96-1.82-13.91-2.74-20.87-.89-6.78-1.8-13.55-2.69-20.33-.92-7.02-1.84-14.03-2.75-21.05-.79-6.06-1.59-12.11-2.35-18.17-.71-5.64-1.39-11.27-2.08-16.91-.06-.51-.16-1.03,.33-1.53,.28,1.74,.6,3.48,.84,5.22,1.32,9.46,2.63,18.92,3.91,28.39,1.16,8.57,2.27,17.15,3.41,25.72,1.16,8.69,2.35,17.38,3.51,26.08,1.27,9.53,2.51,19.07,3.77,28.61,.42,3.24,.85,6.48,1.25,9.72,.07,.56,.31,1.03,.57,1.51,1.8,3.32,4.4,5.54,8.25,6.16,1.08,.17,2.27,.25,3.1,1.3Z"/><path class="g" d="M192.12,264.79c.27-.36,.5-.27,.72-.18,3.12,1.29,6.48,1.38,9.75,1.88,6.16,.94,12.37,1.46,18.56,2.02,5.78,.52,11.54,1.44,17.37,1.11,4.23-.24,8.47-.23,12.7-.05,3.21,.14,6.4-.3,9.59-.65,6.37-.7,12.75-1.33,19.11-2.09,4.14-.5,8.26-1.14,12.37-1.82,1.34-.22,2.63-.74,3.98-1.01-1.08,1.11-2.51,1.51-3.92,1.75-4.94,.85-9.89,1.66-14.88,2.23-6.01,.68-12.01,1.38-18.02,2.08-3.73,.44-7.47,.49-11.23,.36-3.44-.13-6.9-.03-10.34,.14-3.47,.17-6.89-.14-10.32-.48-5.65-.57-11.31-1.1-16.96-1.75-4.68-.54-9.35-1.17-14.01-1.88-1.56-.24-3.13-.67-4.48-1.64Z"/><path class="g" d="M231.36,398.87c4.62-.09,9.2,.56,13.8,.49,4.58-.06,9.14-.58,13.94-1.02-1.25,.92-9.38,2.03-13.92,2.07-4.66,.04-9.23-.85-13.82-1.55Z"/><path class="g" d="M223.21,391.98c-.82-1.31-.8-1.71,.08-2.21,1.25-.7,2.55-.74,3.79,.04,1.34,.84,1.3,2.19-.07,3.02-.61,.37-.92,.37-2,0,.15-.53,.72-.3,1.02-.56,.36-.3,.94-.5,.81-1.07-.11-.51-.64-.67-1.11-.81-1.33-.39-2.19,.08-2.52,1.58Z"/><path class="g" d="M259.31,391.66c.1,.05,.23,.06,.28,.14,.1,.14,.16,.28,0,.46-.26,.29-.69,.39-.8,.88-.07,.32-.47,.27-.73,.08-.28-.21-.28-.5-.1-.78,.31-.48,.84-.61,1.34-.77Z"/><path class="g" d="M318.7,232.8c.65-.54,.36-1.11,.3-1.6-.17-1.27-.08-2.54-.09-3.8,0-.3,.05-.6,.13-.89,.14-.51,.21-1.13,.93-1.15,.6-.02,.81,.48,.99,.92,.67,1.57,1.06,3.2,1.19,4.9,.03,.41,.15,.84-.17,1.4-1.15-1.76-.78-3.93-2.04-5.94-.3,1.93-.23,3.54,0,5.16,.07,.52,.98,0,.78,.67-.09,.3-.54,.5-.64,.8-.1,.32,0,.71,.05,1.06,.09,.57,.35,1.12,.12,1.75-.91-.53-.52-1.63-1.23-2.31-.49,.98,.38,1.96-.12,3-1.02-.54-.55-1.81-1.31-2.47-.74,.25-1.52,.53-2.31,.78-1.38,.43-1.36,.43-1.18,1.92,.05,.4,.22,.83,0,1.27-.49,.09-.57-.31-.65-.61-.67-2.6-.79-5.25-.46-7.91,.13-1.01,.74-1.62,1.71-1.88,1.04-.28,1.75,.22,2.32,1.01,.5,.7,.74,1.51,1.02,2.31,.18,.5,.15,1.08,.65,1.6Zm-4.9,1.96c1.14-.45,2.08-.83,3.02-1.2,.33-.13,.73-.22,.61-.72-.32-1.22-.55-2.48-1.33-3.51-.64-.85-1.5-.75-1.99,.19-.26,.49-.3,1.04-.3,1.58,0,1.14,0,2.28,0,3.65Z"/><path class="g" d="M170.48,235.2c-.49,.92-.32,1.86-1.03,2.53-.83-1.03,.2-2.09-.19-3.24-.51,.58-.72,1.14-.82,1.76-.04,.25-.1,.49-.42,.43-.36-.07-.21-.28-.15-.52,.22-.93,.5-1.89-.43-2.65-.11-.09-.08-.4,.14-.41,.98-.04,.72-.8,.77-1.33,.12-1.27,.06-2.54-.15-4.07-1.33,1.81-.89,4.03-1.94,5.85-.46-.45-.39-.86-.32-1.25,.28-1.67,.44-3.37,1.14-4.93,.24-.53,.42-1.3,1.2-1.12,.64,.15,.85,.83,.86,1.46,.02,1.45,0,2.9,.02,4.36,0,.52-.1,1.06,.12,1.56,.74,0,.56-.57,.68-.91,.37-1.08,.59-2.23,1.34-3.15,1.15-1.42,3.07-1.12,3.75,.58,.07,.17,.15,.34,.16,.52,.22,2.72,.33,5.44-.52,8.09-.05,.16-.1,.34-.48,.39-.41-.56,.02-1.19,.05-1.77,.03-.74,0-1.24-.95-1.38-.94-.13-1.84-.52-2.8-.81Zm3.81,.37c.28-1.7,.11-3.18-.08-4.67-.09-.68-.49-1.1-1.13-1.22-.64-.12-.98,.37-1.25,.83-.51,.89-.7,1.9-1,2.87-.19,.61-.05,.89,.51,1.09,.94,.34,1.88,.7,2.96,1.1Z"/><path class="g" d="M263.78,247.23c-1.07-2.94-.18-9.1,1.55-11.27,1.53-1.91,3.63-1.91,4.67,.23,1.5,3.1,1.92,6.41,1.2,10.04-.62-.75-.45-1.43-.47-2.04-.09-2.07-.43-4.09-1.01-6.06-.3-1.02-.67-2.3-1.96-2.34-1.25-.04-1.77,1.14-2.2,2.14-.86,1.98-.85,4.12-1.06,6.22-.1,1,.11,2.08-.71,3.08Z"/><path class="g" d="M217.28,246.39c-.43-.64-.48-1.35-.52-2.05-.1-2.2,.29-4.34,.83-6.45,.15-.57,.42-1.14,.75-1.64,1.14-1.71,2.82-1.84,4.26-.35,.91,.94,1.41,2.11,1.72,3.35,.54,2.12,.66,4.3,.67,6.48,0,.52,.06,1.09-.38,1.55-.77-.37-.6-1.12-.69-1.72-.27-1.79-.21-3.62-.62-5.4-.22-.95-.47-1.88-1-2.7-.46-.71-.97-1.53-1.94-1.4-.85,.11-1.26,.87-1.54,1.63-.23,.62-.46,1.25-.59,1.9-.37,1.84-.69,3.68-.63,5.57,.01,.39,.14,.84-.33,1.23Z"/><path class="g" d="M282.96,245.38c-.56-.3-.51-.76-.53-1.15-.13-2.9-.2-5.8,.07-8.7,.06-.61,.17-1.2,.42-1.75,.58-1.26,1.82-1.58,3.01-.81,.63,.41,1.06,.99,1.35,1.67,1.32,3.13,1.66,6.4,1.35,9.76-.01,.15-.11,.21-.37,.18-.36-.11-.23-.52-.25-.84-.15-2.42-.45-4.81-1.13-7.14-.25-.87-.56-1.73-1.21-2.4-.87-.9-1.69-.72-1.94,.5-.22,1.06-.28,2.16-.31,3.24-.07,2.05-.05,4.11-.1,6.17,0,.4,.07,.85-.35,1.28Z"/><path class="g" d="M279.37,245.43c-.48-1.45-.26-2.86-.43-4.22-.16-1.2-.36-2.39-.73-3.54-.15-.46-.29-.93-.53-1.34-.49-.83-1.02-1.92-2.09-1.75-1.05,.17-.96,1.36-1.09,2.23-.37,2.4-.26,4.83-.31,7.25-.01,.69,.17,1.46-.54,1.97-.34-.26-.32-.64-.37-.99-.36-3.03-.12-6.05,.27-9.05,.13-1.04,.41-2.27,1.72-2.51,1.21-.22,2.06,.57,2.73,1.47,.39,.52,.72,1.13,.94,1.74,.96,2.66,1.3,5.4,.77,8.2-.03,.15-.17,.28-.33,.54Z"/><path class="g" d="M199.92,245.32c-.46-1.11-.41-2.05-.37-2.98,.09-1.94,.28-3.86,.84-5.73,.28-.93,.62-1.84,1.26-2.59,.58-.67,1.3-1.1,2.23-.94,.98,.17,1.38,.91,1.6,1.76,.16,.64,.32,1.3,.34,1.96,.08,2.24,.11,4.48,.13,6.72,0,.75,.02,1.53-.34,2.35-.73-.35-.6-.95-.62-1.44-.1-2.42-.17-4.84-.23-7.26-.02-.8-.09-1.58-.39-2.31-.33-.82-.85-.95-1.55-.42-.71,.54-1.03,1.34-1.29,2.14-.73,2.26-1.02,4.59-1.16,6.96-.03,.52,.2,1.08-.46,1.78Z"/><path class="g" d="M235.94,247.74c-.19-3.82,.4-7.29,1.95-10.57,.45-.95,1.2-1.71,2.42-1.56,1.13,.13,1.57,.99,1.94,1.92,.28,.68,.38,1.4,.48,2.12,.36,2.69,.27,5.39,.18,8.11-.7-.13-.69-.58-.72-1-.12-1.87-.24-3.74-.36-5.61-.08-1.28-.27-2.54-.85-3.69-.49-.96-1.12-.98-1.83-.15-.44,.51-.68,1.14-.9,1.77-.82,2.29-1.34,4.64-1.51,7.07-.03,.51,.12,1.1-.8,1.6Z"/><path class="g" d="M196.92,244.21c-.65-.4-.48-1.04-.49-1.63-.02-2.05-.02-4.11-.07-6.16-.01-.66-.13-1.32-.23-1.97-.06-.35-.11-.79-.55-.84-.37-.05-.68,.21-.93,.48-.42,.45-.66,1.01-.8,1.6-.38,1.64-.76,3.29-1.09,4.94-.1,.52-.18,1.02-.42,1.48-.52-.15-.45-.5-.43-.75,.14-2.05,.5-4.07,1.01-6.06,.24-.94,.64-1.83,1.48-2.42,1.18-.84,2.18-.58,2.76,.75,.14,.33,.26,.68,.31,1.03,.39,2.89,.29,5.79,0,8.68-.04,.39-.23,.67-.54,.88Z"/><path class="g" d="M208.99,245.95c-.83-1.62-.62-3.07-.57-4.47,.06-1.63,.38-3.24,1.03-4.76,.46-1.08,1.09-2.02,2.15-2.6,1.2-.65,2.03-.36,2.67,.87,.34,.66,.51,1.39,.57,2.09,.24,2.77,.42,5.55,.23,8.33-.03,.35-.04,.71-.33,.97-.66-.32-.51-.92-.54-1.44-.12-2.35-.25-4.71-.35-7.06-.03-.74-.18-1.45-.42-2.13-.36-1.03-.89-1.16-1.77-.45-.78,.63-1.21,1.49-1.52,2.42-.64,1.91-.88,3.88-.9,5.89,0,.68,.1,1.39-.26,2.34Z"/><path class="g" d="M182.43,241.07c-.64-.58-.38-1.22-.4-1.79-.07-1.81,.06-3.63-.14-5.44-.07-.61-.2-1.19-.4-1.76-.23-.64-.71-1.02-1.33-1.07-.65-.05-.92,.55-1.12,1.03-.75,1.79-1.15,3.68-1.53,5.58-.09,.47-.15,.96-.27,1.42-.1,.36,.02,1.01-.62,.87-.52-.11-.34-.69-.32-1.08,.09-2.37,.61-4.66,1.47-6.88,.07-.17,.12-.35,.21-.5,.51-.85,1.08-1.73,2.2-1.62,1.16,.12,2.01,.83,2.37,1.97,.2,.63,.33,1.29,.4,1.95,.21,1.87,.03,3.75,0,5.62-.01,.59-.15,1.15-.5,1.68Z"/><path class="g" d="M311.97,239.44c-.97-.59-.95-1.22-1.08-1.78-.36-1.59-.74-3.17-1.12-4.75-.1-.41-.22-.82-.41-1.2-.31-.63-.49-1.55-1.38-1.47-.96,.08-1.32,.9-1.51,1.79-.44,2.04-.29,4.09-.24,6.14,.02,.68,.23,1.4-.14,2.03-.39-.02-.55-.2-.58-.45-.3-2.64-.59-5.28-.09-7.94,.1-.55,.28-1.06,.57-1.51,1.07-1.64,3.03-1.71,3.96,0,1.47,2.73,2.07,5.71,2.01,9.13Z"/><path class="g" d="M252.4,247.66c-.88-.44-.7-.97-.75-1.43-.27-2.6-.76-5.14-1.78-7.56-.35-.83-.65-1.96-1.67-1.92-1.2,.05-1.26,1.33-1.44,2.23-.47,2.32-.39,4.7-.56,7.05-.04,.57,.18,1.23-.64,1.74-.37-1.52-.21-2.99-.21-4.44,0-1.69-.02-3.4,.44-5.05,.15-.52,.29-1.06,.55-1.53,.86-1.53,2.39-1.66,3.57-.33,.16,.18,.31,.38,.42,.59,1.6,3.32,2.28,6.82,2.08,10.64Z"/><path class="g" d="M303.51,241.76c-.95-3.41-1.02-7.14-3.31-10.32-2.05,3.47-1.18,7.09-1.32,10.55-.65,.05-.65-.34-.71-.7-.46-2.59-.5-5.17,.04-7.75,.18-.83,.41-1.65,.94-2.33,.68-.87,1.38-.92,2.13-.13,.33,.35,.6,.77,.8,1.2,1.34,2.83,1.96,5.82,2.02,8.94,0,.16-.1,.32-.15,.48-.15,.02-.29,.04-.44,.06Z"/><path class="g" d="M291.56,243.56c-.46-.03-.59-.3-.64-.6-.45-2.94-.59-5.89-.17-8.84,.14-.96,.32-1.97,1.49-2.24,.94-.22,2.05,.41,2.57,1.61,1.1,2.51,1.35,5.18,1.61,7.89-.72,0-.72-.38-.79-.74-.37-1.77-.73-3.54-1.17-5.29-.21-.8-.47-1.64-1.23-2.15-.57-.38-1.03-.19-1.16,.55-.13,.77-.18,1.56-.21,2.34-.06,1.93-.17,3.86-.03,5.79,.04,.58,.1,1.19-.27,1.68Z"/><path class="g" d="M187.94,232.17c-1.24,1.76-1.63,3.52-2.12,5.26-.46,1.67-.41,3.46-1.12,5.07-.49-.13-.5-.46-.49-.75,.06-2.99,.58-5.88,1.84-8.62,.13-.27,.26-.55,.42-.8,1-1.53,2.13-1.47,2.95,.2,.48,.98,.67,2.06,.82,3.14,.27,2,.13,3.98-.03,5.97-.04,.43-.09,.83-.67,1.12-.19-3.26,.3-6.49-.9-9.53-.13-.32-.38-.59-.7-1.07Z"/><path class="g" d="M243.32,366.79c.14,0,.28,.09,.23,.19-.12,.22-.28,.13-.39-.04,.06-.05,.11-.1,.17-.16Z"/><path class="g" d="M222.99,252.34c3.56,.13,7.13,.26,10.69,.4,5.69,.23,11.37,.18,17.06,.02,4.29-.11,8.58-.29,12.86-.62,3.79-.3,7.57-.67,11.35-1.01v.45c-5.37,.69-10.77,1.1-16.17,1.47-3.55,.24-7.11,.35-10.67,.39-5.79,.05-11.59,.14-17.38-.2-2.58-.15-5.18-.1-7.75-.5v-.39Z"/><path class="g" d="M206.12,206.65c-1.17,.72-2.36,1.38-3.32,2.54,.98,.39,1.67,.36,2.38-.32,.44-.43,1.03-.79,2.08-.33-1.51,.47-2.53,1.22-3.27,2.74-.23-1.21-.82-1.48-1.67-1.43-.91,.05-1.68-.46-2.51-.72-4.72-1.48-9.38-3.13-13.62-5.74-.54-.34-1.21-.55-1.48-1.25,.44-.45,.65,.04,.89,.19,4.78,3.04,10.07,4.87,15.42,6.58,.7,.22,1.15,0,1.6-.47,.67-.71,1.45-1.27,2.3-1.76,.33-.19,.7-.51,1.2-.03Z"/><path class="g" d="M307.96,238.47c0-.45,.3-.56,.55-.7,.16-.09,.34-.27,.17-.36-.24-.12-.7,.02-.81-.13-.24-.32,.24-.43,.37-.65,.3-.52-.36-.21-.42-.45-.18-.64,.76-.53,.7-1.17-1.28,.53-.67-.97-1.34-1.26-.35-.15,.07-.33,.24-.43,.93-.56,1.86-1.12,2.93-1.77,.15,.64,.97,1.08,.12,1.96-.26,.27,.48,1.02,.39,1.66-.01,.09,.26,.19,.34,.32,.04,.06-.04,.29-.1,.31-1.06,.28-.2,1.65-1.15,1.98-.65,.23-1.18,.83-1.97,.67Zm.28-4.69s-.12,.08-.11,.11c.02,.08,.07,.15,.1,.23,.04-.04,.12-.08,.11-.11-.02-.08-.07-.15-.1-.23Zm2.35,1.62s-.08-.11-.11-.1c-.08,.01-.15,.06-.23,.09,.04,.04,.08,.11,.11,.1,.08-.01,.15-.06,.24-.1Z"/><path class="g" d="M235.75,201.81c.59-4.4,1.73-8.69,2.63-13.03,.11-.52,.26-1.03,.4-1.55,.16,0,.32,0,.48,0,.07,.22,.05,.56,.45,.38,.12,.36-.1,.82,.34,1.08-.33,2.69-.65,5.38-1.2,8.03h-.5c.29-2.14,.57-4.27,.86-6.4,.1-.63,.22-1.26,.11-2.02-.42,.56-.39,1.13-.56,1.62-.81,3.86-1.75,7.69-2.38,11.58-.02,.11-.12,.21-.18,.31-.15,0-.29-.01-.44-.02Z"/><path class="g" d="M262.18,407.05c.45-.67,1.07-.58,1.65-.65,4.32-.49,8.61-1.13,12.82-2.2,2.35-.59,4.6-1.42,6.67-2.72,.3-.19,.63-.31,.96-.46,.03-.01,.1,.06,.17,.12-.14,.69-.79,.83-1.27,1.13-2.54,1.59-5.4,2.34-8.28,3-4,.91-8.08,1.4-12.15,1.87-.15,.02-.31-.05-.57-.1Z"/><path class="g" d="M205.92,221.34c-3.1-.43-6.12-1.24-9.15-1.99-3.02-.75-6.04-1.51-9.07-2.25-1.11-.27-2.19-.66-3.26-1.04-.55-.19-1.14-.39-1.52-1.1,7.63,2.51,15.33,4.18,23.01,5.93v.45Z"/><path class="g" d="M240.8,155.29c-4.2-.5-7.39,1.6-10.37,4.13-.98,.83-.84,1.87,.22,2.76,1.01,.84,2.18,1.37,3.49,1.56-.05,.15-.06,.25-.09,.26-1.68,.45-4.63-1.39-4.91-3.04-.12-.73,.16-1.32,.66-1.79,2.46-2.31,5.27-3.99,8.63-4.61,.87-.16,1.77-.16,2.36,.72h0Z"/><path class="g" d="M184.21,206.95c5.79,2.74,12.19,3.62,18.48,6.02-3.07,.14-17.17-4.49-18.48-6.02Z"/><path class="g" d="M240.05,181.58l-.11,.02c.73-1.51,.77-3.13,.83-4.75l-.1,.03c.73-.71,.2-1.72,.61-2.51,.16-.05,.45-.08,.47-.17,.21-.98,.38-1.97,.54-2.96,.04-.27-.11-.43-.41-.37-.16-.59,.23-1.27-.32-1.79,.11-.96-.05-1.95,.42-2.87,.65,1.36-.13,2.8,.34,4.53,.34-.74,.19-1.33,.54-1.7l.44,.02c-.29,2.74-.98,5.42-1.5,8.12-.24,1.29-.3,2.6-.6,3.87-.07,.29-.05,.6-.39,.74-.54,.58-.47,1.19-.06,1.8,.07,.15,.06,.29-.09,.39-.27,.07-.54,.14-1.04,.28,.42-.97,.37-1.84,.41-2.7Z"/><path class="g" d="M250.97,390.48c1.48,.72,1.66,.96,2.13,2.82-.45,.06-1.22-.52-1.17,.59,.02,.45-.15,.94-.8,1,.23-1.37-.01-2.09-.81-2.44-.56-.24-1.17-.21-1.46,.32-.52,.98,.38,1.51,.91,2.19-.81,.52-1.49,.79-2.22-.16-.93-1.21-.99-2.37,0-3.7,.62,.36-.26,.9,.32,1.36,1.38-1.13,2.81-.99,4.32,.71-.07-1.28-.58-1.79-1.25-2.19,0-.16,.02-.33,.03-.49Zm-2.89,3.3c-.05-.14-.06-.34-.27-.31-.15,.02-.17,.15-.09,.28,.06,.1,.12,.19,.19,.29,.06-.09,.11-.17,.17-.26Z"/><path class="g" d="M224.07,406.49c-3.27-.2-6.46-.93-9.62-1.7-2.87-.7-5.69-1.59-8.46-2.65-.39-.15-.81-.22-1.05-.62,.21-.36,.53-.23,.77-.14,5.72,2.17,11.62,3.65,17.68,4.49,.24,.03,.46,.14,.69,.22,0,.13,0,.26-.01,.39Z"/><path class="g" d="M280.4,250.31c4.23-.88,8.51-1.52,12.67-2.76,1.82-.54,3.63-1.14,5.56-1.76-.2,.89-.91,.89-1.4,1.07-3.56,1.32-7.24,2.21-10.95,2.95-1.94,.38-3.91,.67-5.86,.99,0-.17,0-.33,0-.5Z"/><path class="g" d="M242.69,184.02c1.03-5.98,1.89-12,3.17-17.94,.17,.03,.33,.06,.5,.08-.51,2.96-.98,5.93-1.55,8.88-.58,3.01-1,6.07-2.12,8.98Z"/><path class="g" d="M245.15,142.91c-.11-1.77,.38-3.46,.69-5.16,.89-4.83,1.82-9.66,2.74-14.49h.5c-.76,5.54-2.08,10.97-2.99,16.48-.18,1.06-.11,2.17-.58,3.18h-.36Z"/><path class="g" d="M284.35,403.34c-4.97,3.75-11.09,3.95-16.85,5.33,.87-.84,2.02-.86,3.07-1.13,1.87-.48,3.76-.87,5.65-1.24,2.86-.56,5.47-1.76,8.13-2.96Z"/><path class="g" d="M219.01,407.38c6.18,1.03,12.4,1.55,18.66,1.74-6.29,.5-12.49-.19-18.67-1.26v-.48Z"/><path class="g" d="M288.23,387.25c-4.37,3.92-9.8,5.41-15.44,6.97,.2-.66,.57-.77,.93-.88,1.73-.53,3.46-1.04,5.18-1.57,2.43-.75,4.71-1.83,6.81-3.29,.77-.54,1.55-1.09,2.52-1.23Z"/><path class="g" d="M304.25,248.87c-.27-.02-.59,.35-.8-.01-.14-.24,.12-.43,.35-.51,1.24-.44,2.55-.69,3.88-1.36-1.37-.36-2.51,.57-4.12,.24,1.98-.92,3.75-.96,5.36-1.49,.42,.85-1.06,.44-.6,1.43,.2,.43-1.06,.47-1.36,.88-.3,.41-.16,1.1-.88,1.32-.57,.17-1.1,.52-1.67,.67-.56,.15-1.06,.61-1.79,.35,.47-.8,1.39-.68,2.01-1.1,.27-.18,.75-.09,.75-.62-.41-.11-.76,.07-1.13,.2Z"/><path class="g" d="M268.97,378.98c.06,.52,.43,1.02-.11,1.83-.77-3.11-2.12-5.72-4.23-7.94,.92,.22,1.39,.96,1.98,1.56,.34,.35,.79,1.16,.9-.15,.01-.15,.26-.16,.43-.05,.77,.49,2.04,3.62,1.82,4.54,0,.02-.33-.03-.51-.04-.13-.37-.06-.79-.35-1.11-.11-.35-.05-1.06-.47-.92-.53,.17,.08,.65,.11,1,0,.05,.05,.1,.08,.15,.11,.37,.23,.75,.34,1.12Z"/><path class="g" d="M248.63,375.35c-1.27,.22-2.53,.14-3.77-.14-1.04-.23-2-.67-2.63-1.7,.63-.26,.84,.23,1.17,.43,2.22,1.34,5.21,1.15,7.25-.44,.55-.43,1.02-.98,1.83-1.16,.13,.7-.52,.77-.76,1.11-.42,.57-1.78,.61-1.04,1.87,.1,.17-.3,.48-.57,.63-.64,.35-1.32,.57-2.05,.63v-.49c.3-.11,.61-.22,.92-.33,.34-.13,.76-.17,.97-.65-.58-.11-.92,.16-1.31,.24Z"/><path class="g" d="M258.63,388.86c-.63,.37-1.01-.08-1.44-.2-.52-.15-1.08-.77-1.42,.24-.03,.09-.32,.18-.46,.15-.72-.19-1.24-.7-1.74-1.23-.68-.72-.74-.93-.73-2.01,.69,.13,.47,1.7,1.37,1.11,.56-.37-.37-1.1-.51-1.71-.12-.56-.48-1.08-.18-2,.76,1.3,.95,2.6,1.84,3.54,.91,.97,2.31,1.16,3.28,2.11Z"/><path class="g" d="M185.62,264.86c4.6,1.55,9.15,2.79,13.72,3.9,.03,.26-.06,.49-.22,.46-4.42-.9-8.77-2.06-13.01-3.62-.19-.07-.48-.12-.49-.74Z"/><path class="g" d="M219.01,407.38v.48c-4.44-.82-11.81-3.08-13.55-4.14,.19-.38,.52-.24,.77-.14,4.19,1.51,8.46,2.75,12.78,3.81Z"/><path class="g" d="M269.12,410.62c3.52-1.03,7.06-2.04,10.57-3.1,1.01-.31,1.98-.75,3.25-1.23-.63,1.14-1.56,1.32-2.34,1.58-3.77,1.27-7.58,2.39-11.47,3.24l-.02-.49Z"/><path class="g" d="M222.26,411.19c-1.77,.07-3.46-.43-5.15-.82-2.81-.65-5.54-1.6-8.25-2.57-.3-.11-.68-.19-.84-.52,.41-.44,.77-.17,1.06-.06,4.13,1.49,8.31,2.8,12.69,3.39,.17,.02,.34,.13,.5,.19v.39Z"/><path class="g" d="M222.1,391.42c.86,2.55,2.7,2.9,5.11,2.41-1.14,1.58-2.59,.35-3.96,.8,.91,.84,1.71,1.11,2.69,.6,.05,.8-.48,.88-.83,.86-1.31-.07-2.47-.56-3.3-1.62-.3-.39-.74-.83-.04-1.37,.48-.37-.26-1.02,.32-1.68Z"/><path class="g" d="M196.1,215.56c-7.92-1.56-11.74-2.81-13.32-4.5,1.32,.33,2.23,.99,3.28,1.3,3.11,.91,6.25,1.73,9.4,2.49,.23,.05,.43,.18,.65,.27l-.02,.44Z"/><path class="g" d="M227.01,272.2c3.77,.24,7.54,.49,11.3,.72,2.04,.13,4.07,.23,6.11,.34v.44c-2.77,.26-5.51-.32-8.27-.36-3.06-.04-6.11-.38-9.15-.7v-.44Z"/><path class="g" d="M255.78,216.19c-1.15-1.17-2.77-.93-3.85-1.85,1.98,.06,3.8,.65,5.45,1.73,.22,.15,.24,.36-.24,.65-1.05,.66-1.92,.41-2.91,.08-.94-.31-1.99-.29-3.17-1.03,1.79-.38,3.09,.82,4.72,.42Z"/><path class="g" d="M255.81,209.03c-.1,.23-.13,.43,.06,.65,.29,.33,.97,.36,.6,1.2-.3,.67,1,.48,1.12,1.39-1.92-.55-3.73-1.08-5.54-1.6,1.22-.63,2.27,.41,3.57,.06-.79-1.12-2.25-.88-3.04-1.75,.25-.54,.78-.07,1.11-.32l.02,.02c.11,.42,.46,.36,.76,.4,.43-.6,.89-.17,1.35-.05Z"/><path class="g" d="M263.92,367.4c-.69,.27-.93-.08-1.22-.25-.21-.11-.4-.33-.64-.21-.28,.13-.14,.81-.67,.6-.64-.25-1.02-.83-1.44-1.33-.78-.94-.85-1.92,.08-3.24,.05,1.52-.22,2.89,1.48,3.68-.27-1.47-1.09-2.81,.3-4.12,.26,1.03-.55,1.89,.04,2.81,.53,.82,1.42,1.25,2.09,2.07Z"/><path class="g" d="M303.93,200.19c-2.1,1.88-9.91,3.45-12.03,2.41,4.28-.19,8.21-1,12.03-2.41Z"/><path class="g" d="M290.97,221.47c4.61-.1,9.19-.66,13.79-.91,0,.15,0,.3,0,.44-3.93,.32-7.86,.64-11.79,.94-.65,.05-1.31-.03-1.97-.05-.01-.14-.02-.28-.03-.42Z"/><path class="g" d="M266.62,319.61c4.49-.3,8.98-.6,13.48-.89l.03,.39c-4.48,.51-8.98,.83-13.5,.94v-.44Z"/><path class="g" d="M250.59,133.1c-.65,4.25-1.29,8.5-1.94,12.75h-.49c.51-4.29,.98-8.57,1.98-12.78l.45,.02Z"/><path class="g" d="M269.05,386.08c.44,2.41,1.73,4,4.07,4.88-2.14,.41-4.45-.76-5-2.38-.05-.15-.06-.45,.02-.49,.33-.19,.78-.2,.62-.8-.08-.32-.24-.69,.3-1.21Z"/><path class="g" d="M246.73,140.71c.56-4.13,1.36-8.22,2.16-12.31,.17,0,.34,0,.51,0-.72,4.1-1.44,8.21-2.17,12.31h-.51Z"/><path class="g" d="M266.01,226.18c1.7-.48,3.33-1.15,4.88-2,1.52-.84,2.98-1.77,3.91-3.46-.01,1.16-.14,1.55-1.4,2.47-2.2,1.62-4.54,2.98-7.39,2.99Z"/><path class="g" d="M231.15,166.32c-.34,.51-.66,.32-.9,.23-1.36-.5-2.66-1.13-3.82-2-1.06-.79-1.74-1.82-1.66-3.22,.07-1.23,.66-1.69,2.13-1.64-1.95,1.36-1.95,2.93,.03,4.44,.91,.69,1.95,1.18,2.99,1.65,.41,.18,.81,.36,1.23,.55Z"/><path class="g" d="M201.94,388.68c3.16,2.12,6.83,2.88,10.22,4.12-.71,.42-.72,.43-5.24-1.23-1.83-.67-3.72-1.25-4.97-2.89Z"/><path class="g" d="M249.08,123.27h-.49c.59-3.64,1.18-7.27,1.75-10.9,.15-.95,.21-1.92,.31-2.88,.34,.2,.29,.59,.44,.88l-.2,2.01c-.5,.4-.27,.94-.28,1.43,.21,.62-.43,1.22-.02,1.84v-.03c-.86,1.47-.67,3.14-.9,4.73-.28,.16-.24,.42-.19,.67-.14,.75-.27,1.49-.41,2.24Z"/><path class="g" d="M196.06,269.63c-1.89,.37-9.62-1.61-10.76-2.77,3.73,.94,7.22,1.92,10.76,2.77Z"/><path class="g" d="M303.52,269.93c-3.27,1.56-6.77,2.21-10.34,2.59,3.4-1.05,6.88-1.77,10.34-2.59Z"/><path class="g" d="M201.71,188.62c-2.95,.43-8.41-2.08-9.67-4.28,2.75,2.16,5.95,3.34,9.67,4.28Z"/><path class="g" d="M293.12,269.96c2.38-.57,4.76-1.15,7.14-1.72,1.14-.27,2.16-.95,3.4-.83-3.29,1.77-6.95,2.26-10.53,3.02v-.47Z"/><path class="g" d="M179.71,245.61c.83-.04,10.18,1.69,10.89,2.02-1.77,.39-9.6-1.07-10.89-2.02Z"/><path class="g" d="M187.5,194.75c2.96,1.55,6.03,2.84,9.08,4.18-1.72,.16-7.83-2.63-9.08-4.18Z"/><path class="g" d="M187.74,284.16c3.41,1.19,6.54,2.07,10.04,2.79-2.27,.47-8.53-1.24-10.04-2.79Z"/><path class="g" d="M232.8,363.28c-.7,.38-.14,.69,.08,.96,1.1,1.31,1.86,2.79,2.36,4.42,.09,.29,.18,.57-.17,1-1.27-2.58-1.82-5.74-5.71-6.34,1.13-.57,1.75-.18,2.38,.04,.38,.13,.73,.49,1.09-.03l-.03-.05Z"/><path class="g" d="M287.97,237.2c.3,.59-1.23,1,.17,1.41,.37,.11-.12,.49-.31,.55-1.23,.42-2.47,.79-4.1,1.31,.66-1.21,1.81-.89,2.38-1.57-.32-.77-1.21,.04-1.71-.63,1.24-.37,2.4-.72,3.57-1.07Z"/><path class="g" d="M204.84,250.25c3.73,.59,7.47,1.05,11.23,1.43v.53c-3.75-.32-7.5-.8-11.23-1.42v-.54Z"/><path class="g" d="M213.26,359.69c2.14,2.84,.99,6.96-2.16,7.78,2.2-2.23,3.34-2.38,2.16-7.78Z"/><path class="g" d="M194.89,201.3c-2.16-.16-6.4-2.31-7.92-3.86,1.43,.4,2.63,1.32,3.97,1.94,1.33,.62,2.64,1.28,3.96,1.92Z"/><path class="g" d="M302.53,272.05c-2.65,1.68-5.63,2.2-8.68,2.47,2.86-.93,5.82-1.53,8.68-2.47Z"/><path class="g" d="M263.67,224.74c2.75-1.35,5.94-1.83,8.19-4.19,.36,.68-.12,.9-.41,1.13-1.22,1.01-2.66,1.64-4.12,2.19-1.16,.44-2.34,.84-3.51,1.25l-.15-.39Z"/><path class="g" d="M264.12,169.42c2.64-.81,5.14-1.87,6.39-4.68,.61,.4,.41,1.01,.1,1.38-1.59,1.85-3.51,3.23-5.96,3.71-.21,.04-.49,0-.53-.41Z"/><path class="g" d="M279.68,290.79c-5.92,.44-10.61,.23-12.11-.68,2.71,.31,5.15,.38,7.6,.39,1.51,0,3-.36,4.51-.09,0,.13,0,.26,0,.39Z"/><path class="g" d="M171.24,225.52c.73-1.08,1.96-.76,2.65-1.67-1.6-.46-2.86,.8-4.26,.64-.18-.55,.19-.5,.45-.58,1.09-.31,2.18-.62,3.27-.94,.58-.17,.79-.17,.73,.63-.06,.71,.81,.07,1.26,.54-1.23,.73-2.51,1.12-4.11,1.38Z"/><path class="g" d="M281.26,388.91c2.79-1.17,5.16-2.99,7.69-4.7-.39,1.5-5.46,4.65-7.69,4.7Z"/><path class="g" d="M304.76,221.01c0-.15,0-.3,0-.44,2.38-.62,4.84-.95,7.17-1.78,.59-.21,1.12-.72,2.19-.42-3.11,1.69-6.21,2.23-9.36,2.65Z"/><path class="g" d="M278.59,358.52c2.8,.87,4.65,2.88,5.77,6.3-.73-.47-.74-.46-1.22-1.43-1-2.01-2.46-3.52-4.56-4.37l.02-.49Z"/><path class="g" d="M215.97,173.27c-2.41-.43-4.34-1.71-6.08-3.31-.43-.39-.83-.91-.28-1.65,1.35,2.7,4.09,3.5,6.36,4.96Z"/><path class="g" d="M225.84,167.51c-.37,.42-.76,.21-1.05,.11-1.68-.59-3.13-1.56-4.42-2.76-.58-.53-.94-1.18-.37-2.09,.94,2.95,3.56,3.63,5.85,4.74Z"/><path class="g" d="M252.08,121.11c.51-3.26,1.03-6.53,1.54-9.79,.16,0,.32,0,.48,0-.51,3.27-.88,6.56-1.65,9.79h-.38Z"/><path class="g" d="M201.05,386.09c2.54,1.16,5.15,2.14,7.91,3.31-1.59,.24-6.5-1.8-7.91-3.31Z"/><path class="g" d="M185.54,269.42c2.73,.46,5.42,1.15,8.38,1.55-1.41,.64-6.79-.39-8.38-1.55Z"/><path class="g" d="M301.44,235.43c-.03-.05-.05-.13-.09-.15-.13-.04-2.04-1.11-2.26-1.3,.6-.47,1.19-.93,1.88-1.46,.33,.49,.25,1.08,.86,1.41,.59,.32-.85,.84-.19,1.45-.07,.03-.14,.05-.19,.06Z"/><path class="g" d="M245.7,162.53c.45-3.26,.9-6.52,1.35-9.78h.49c-.44,3.26-.73,6.54-1.33,9.79h-.51Z"/><path class="g" d="M197.71,192.04c-2.41-1.16-4.9-2.16-7.08-3.76l.19-.37c2.37,1.23,4.74,2.47,7.11,3.7-.07,.14-.15,.28-.22,.43Z"/><path class="g" d="M294.57,267.36c2.86-.6,5.59-1.62,8.57-2.78-1.19,1.36-4.88,2.71-8.57,3.29,0-.17,0-.34,0-.51Z"/><path class="g" d="M231.72,387.53c-2.01-1.31-2.68-5.41-1.22-7.95,.12,1.57-.43,2.88-.11,4.19,.32,1.28,.56,2.59,1.32,3.76Z"/><path class="g" d="M301.84,214.42c2.66-.65,5.4-.95,8.33-2.04-1.23,1.31-3.79,1.99-8.31,2.47l-.02-.43Z"/><path class="g" d="M247.42,212.36c.47-3.17,.85-6.36,1.55-9.49h.48c-.44,3.18-.86,6.36-1.53,9.5h-.5Z"/><path class="g" d="M301.52,196.37c-2.39,1.17-4.82,2.17-7.66,1.75,1.29-.27,2.6-.46,3.85-.83,1.24-.37,2.43-.91,3.65-1.38,.05,.15,.11,.31,.16,.46Z"/><path class="g" d="M294.57,267.36c0,.17,0,.34,0,.51-2.85,.38-5.68,.92-8.58,.6,2.86-.38,5.73-.68,8.58-1.11Z"/><path class="g" d="M255.7,96.57c.41-2.61,.83-5.22,1.24-7.83,.29,2.72-.25,5.31-.86,7.89-.13-.02-.26-.04-.38-.07Z"/><path class="g" d="M240.16,203.64c.44-2.58,.89-5.15,1.57-7.68l.46,.02c-.39,2.58-.9,5.14-1.56,7.67-.16,0-.31,0-.47,0Z"/><path class="g" d="M267.56,171.18c2.47-.81,4.76-1.82,6.13-4.38,.48,1-.06,1.56-.58,1.99-1.61,1.33-3.25,2.66-5.55,2.39Z"/><path class="g" d="M202.61,250.4c-2.56-.46-5.12-.89-7.59-1.69l.09-.4c2.5,.51,5,1.03,7.51,1.55,0,.18,0,.36,0,.54Z"/><path class="g" d="M275.72,293.17c-2.43,.51-4.86,1.01-7.29,1.52l-.1-.45c2.38-.84,4.88-1.15,7.37-1.5,0,.14,0,.29,.01,.43Z"/><path class="g" d="M251.42,218.38c.31-.35,.71-.06,.88-.4-.36-.34-1.09-.15-1.23-.93,1.45,.14,2.8,.49,4.2,1.01-.07,.59-.58,.83-.87,1.14-.26,.28-2.17-.34-2.98-.82Zm2.69-.03c-.39-.17-.76-.34-1.26-.03,.49,.19,.87,.31,1.26,.03Z"/><path class="g" d="M304.26,201.75c-1.94,1.93-5.21,2.77-7.42,1.89,2.71,.3,5-1.05,7.42-1.89Z"/><path class="g" d="M251.08,110.37c-.15-.29-.09-.69-.44-.88,.3-2.44,.34-4.91,.94-7.31,.15,0,.3,.02,.46,.02-.16,1.56-.32,3.12-.47,4.68-.03,.28-.19,.6,.18,.79l.02-.02c-.51-.05-.34,.35-.38,.6-.11,.71-.21,1.42-.31,2.13Z"/><path class="g" d="M181.36,224.99c-.66,1.1-1.67,1.57-2.58,2.17-.54-.58-1.14-.41-1.8-.12,.4-1.01,1.26-1.45,2.11-1.89,.78,1.24,1.39-.28,2.27-.17Z"/><path class="g" d="M191.01,222.11c-2.51-.45-5.03-.84-7.18-2.39,2.36,.82,4.81,1.25,7.2,1.93,0,.15-.01,.3-.02,.45Z"/><path class="g" d="M190.68,190.48c1.11,2.05,3.18,2.71,5.41,3.68-2.68,.03-5-1.58-5.41-3.68Z"/><path class="g" d="M289.32,382.52c-1.52,1.54-4.56,3.1-6.4,3.32,2.11-1.16,4.28-2.19,6.4-3.32Z"/><path class="g" d="M187.36,249.47c-2.66,.02-4.93-.74-7.54-1.82,1.22-.04,6.5,1.29,7.54,1.82Z"/><path class="g" d="M208.92,177.25c-2.23-.33-3.99-1.38-5.26-3.24,1.65,1.24,3.39,2.35,5.26,3.24Z"/><path class="g" d="M195.35,222.21c2.43,.34,4.9,.38,7.31,.93l-.02,.44c-2.44-.24-4.91-.33-7.31-.94,0-.15,.01-.29,.02-.44Z"/><path class="g" d="M203.6,181.22c-2.2-.45-4.08-1.48-5.44-3.35,1.75,1.2,3.52,2.35,5.44,3.35Z"/><path class="g" d="M249.5,272.93c2.06-.34,5.84-.22,7,.48-1.13,0-2.26,0-3.39,0-1.2,0-2.39-.02-3.59-.02l-.02-.45Z"/><path class="g" d="M227.01,272.2v.44c-2.28-.34-4.64,.02-6.84-.89,2.3-.08,4.58-.05,6.84,.45Z"/><path class="g" d="M301.79,245.73c2.2-.45,4.4-.9,6.6-1.35l.08,.35c-2.13,.78-4.37,1.03-6.59,1.39-.03-.13-.06-.26-.09-.39Z"/><path class="g" d="M285.32,244.09c.14-.57,.99-.32,1.14-.9-.49-.67-1.15,.11-1.8-.36,1.05-.66,2.15-.79,3.28-1.07-.06,.68-.5,.72-.88,.83-.2,.05-.31,.19-.33,.36-.14,1.21-.13,1.21-1.42,1.14Z"/><path class="g" d="M221.79,168.59c-1.93,.02-3.37-1.06-4.82-2.12-.45-.32-.74-.76-.48-1.53,1.34,1.98,3.41,2.64,5.3,3.65Z"/><path class="g" d="M187.16,279.48c2.08,.51,4.17,1.02,6.25,1.54l-.11,.42c-2.14-.3-4.27-.61-6.23-1.61l.09-.35Z"/><path class="g" d="M223.82,192.89c-1.73,.9-3.47,1.78-5.17,2.75,1.37-1.57,3.11-2.47,5.17-2.75Z"/><path class="g" d="M206.59,171.64c1.64,1.49,3.41,2.38,5.33,3.39-1.82,.13-4.81-1.74-5.33-3.39Z"/><path class="g" d="M287.94,251.7c2.36-.97,4.85-1.08,7.29-1.41-2.3,1.2-4.87,1.01-7.29,1.41Z"/><path class="g" d="M219.04,216.38c.56,2.48-.28,4.72-2.15,5.57,1.44-1.74,2.23-3.48,2.15-5.57Z"/><path class="g" d="M290.49,380.41c-1.9,1.53-3.85,2.23-6.11,2.91,.65-.77,4.56-2.59,6.11-2.91Z"/><path class="g" d="M306.62,217.94c-2.16,.56-4.35,.88-6.58,.93l-.02-.44,6.58-.95c0,.15,.01,.31,.02,.46Z"/><path class="g" d="M307.67,224.55c.51-.04,.97,.89,1.37-.07,.11-.26,.38-.16,.57,.06,.42,.49,.93,.93,1.01,1.74-.62,.06-.66-.59-1.03-.72-.62-.23-.48,.59-.89,.67-.39-.1-.47-.5-.7-.76-.19-.22-.43-.44-.32-.92Z"/><path class="g" d="M238.35,196.73h.5c-.17,2.44-.57,4.84-1.04,7.23h-.53c.43-2.4,.83-4.8,1.07-7.23Z"/><path class="g" d="M295.17,276c1.92-.55,3.84-1.1,6-1.72-1.06,1.12-4.09,2.05-6,1.72Z"/><path class="g" d="M253.01,104.05c-.34,2.41-.68,4.82-1.02,7.23-.71-1.23,.15-2.44-.22-3.63l-.02,.02c.65-1.12,.47-2.43,.79-3.62h.48Z"/><path class="g" d="M237.56,407.3c-2.2,.45-4.4,.45-6.61,0l.02-.43c2.19,0,4.38-.02,6.56-.03l.02,.45Z"/><path class="g" d="M187.17,272.2c1.97,.45,3.94,.9,6.08,1.38-1.61,.46-4.29-.09-6.08-1.38Z"/><path class="g" d="M230.97,406.87l-.02,.43c-2.34,.08-4.61-.38-6.89-.81,0-.13,0-.26,.01-.39l6.89,.77Z"/><path class="g" d="M201.01,183.1c-.04,.26-.21,.33-.39,.27-1.49-.5-2.93-1.12-4.3-1.89-.27-.15-.5-.35-.59-.66-.03-.1,.02-.23,.08-.33,.11-.2,.36-.2,.46-.08,1.19,1.6,3.3,1.57,4.74,2.69Z"/><path class="g" d="M193.57,283.85c-2.09-.26-4.18-.55-6.13-1.34,.03-.13,.06-.27,.09-.4,2.02,.43,4.03,.85,6.05,1.28,0,.16,0,.31,0,.47Z"/><path class="g" d="M291.15,207.96c1.85,.27,3.66,.66,5.21,1.94-1.78-.51-3.57-1.01-5.35-1.52,.05-.14,.1-.28,.14-.42Z"/><path class="g" d="M230.1,220.56c1.65,.7,3.3,1.39,4.94,2.09-1.92-.03-3.5-.9-5.1-1.7l.16-.39Z"/><path class="g" d="M224.36,208.75c.47-.83,1.08-1.54,1.56-2.36,.47-.8,.11-1.73,.5-2.65,.86,1.9,.05,3.87-2.05,5Z"/><path class="g" d="M214,166.94c1.13,1.65,3.02,2,4.98,2.86-2.58,.07-4.6-1.11-4.98-2.86Z"/><path class="g" d="M187.41,274.64c1.77,.57,3.54,1.13,5.31,1.7l-.11,.34c-1.88-.25-3.69-.73-5.36-1.66l.16-.39Z"/><path class="g" d="M253.05,101.1c.14-2.16,.52-4.27,.99-6.8,.45,1.03,.19,1.69,.11,2.34-.1,.78-.21,1.55-.32,2.33-.1,.72-.22,1.43-.32,2.15h-.45Z"/><path class="g" d="M250.59,195.62c-.28,1.96-.46,3.93-.99,5.84l-.43-.02c.17-1.97,.43-3.93,.95-5.85l.46,.02Z"/><path class="g" d="M283.33,360.23c-1.13-1.22-2.09-2.42-3.96-3.07,2-.01,3.53,1.27,3.96,3.07Z"/><path class="g" d="M200.92,208.3c-.03-2.14,1.4-3.66,3.49-4.03-1.46,.93-2.61,2.13-3.49,4.03Z"/><path class="g" d="M239.15,212.08c-.07,1.61-.36,3.15-.88,4.83-.38-1.15,.04-3.57,.88-4.83Z"/><path class="g" d="M289.16,212.68c1.42,.72,2.83,1.46,3.7,2.89-1.34-.83-2.72-1.59-3.7-2.89Z"/><path class="g" d="M219.11,244.02c1.69-.61,3.46-.34,5.19-.49-1.66,.84-3.42,.73-5.19,.49Z"/><path class="g" d="M214.23,365.93c1.34-1.19,1.81-2.43,1.49-4.06,1.32,1.39,.65,3.36-1.49,4.06Z"/><path class="g" d="M201.27,175.64c.98,1.35,2.61,1.74,4.15,2.59-2.01,.11-3.55-.84-4.15-2.59Z"/><path class="g" d="M228.37,382.11c.13,1.59,.21,3.08,1.38,4.36-1.68-.65-2.31-2.7-1.38-4.36Z"/><path class="g" d="M288.92,349.2c1.63-.98,3.35-.93,5.03-1.74-.71,1.08-3.08,1.86-5.03,1.74Z"/><path class="g" d="M204.46,223.28l9.5,.38c-3.18,.36-6.34,.47-9.5-.04-.01-.11,0-.23,0-.34Z"/><path class="g" d="M318.13,235.22c-1.32,.98-2.82,1.54-4.56,1.5,1.47-.63,2.95-1.25,4.42-1.88,.05,.13,.1,.25,.14,.38Z"/><path class="g" d="M245.24,150.2c.22-1.73,.37-3.46,.89-5.14,.15,0,.31,.02,.46,.03-.19,1.72-.46,3.43-.83,5.12h-.52Z"/><path class="g" d="M255.82,238.03c1.5-.6,2.99-1.24,4.63-1.28-1.42,.86-2.96,1.33-4.63,1.28Z"/><path class="g" d="M236.76,211.24c-.22,1.43-.44,2.86-.66,4.29-.04,.25-.11,.5-.43,.46-.35-.04-.29-.31-.24-.54,.29-1.41,.58-2.82,.87-4.23l.46,.02Z"/><path class="g" d="M265.57,243.34c1.93-.15,3.62-.28,5.38-.42-1.04,.78-3.79,1.03-5.38,.42Z"/><path class="g" d="M317.21,230.59c-1.14,1.26-2.75,1.53-4.29,1.94,1.22-1.09,2.79-1.44,4.29-1.94Z"/><path class="g" d="M201,383.61c1.51,.59,3.01,1.18,4.52,1.76-.05,.12-.09,.24-.14,.36-1.66-.17-3.07-1-4.55-1.67l.17-.46Z"/><path class="g" d="M292.1,242.18c1.5-.67,2.99-1.34,4.49-2.01l.18,.42c-1.44,.82-2.87,1.68-4.56,1.94-.04-.12-.07-.24-.11-.36Z"/><path class="g" d="M256.9,241c1.59-.34,3.19-.67,4.78-1.01-1.41,1.17-3.06,1.37-4.74,1.47l-.04-.46Z"/><path class="g" d="M219.11,240.52c1.43-.86,3.02-1.11,4.62-1.37-1.36,1.02-3,1.19-4.62,1.37Z"/><path class="g" d="M313.73,233.59c1.3-.86,2.76-1.26,4.33-1.85-.74,1.05-2.35,1.74-4.33,1.85Z"/><path class="g" d="M274,314.68c1.47-.6,3.08-.58,4.58-1.03-1.37,1.05-2.91,1.3-4.58,1.03Z"/><path class="g" d="M274.86,238.61c1.5-.37,2.99-.74,4.49-1.11,.03,.12,.06,.24,.1,.37-1.37,.83-2.95,.93-4.47,1.24l-.12-.49Z"/><path class="g" d="M270.99,239.29c-1.18,1.2-2.67,1.47-4.26,1.4,1.32-.74,2.86-.83,4.26-1.4Z"/><path class="g" d="M257.46,97.83c-.32,1.67-.58,3.35-1.23,4.94-.26-1.73,.32-3.33,.74-4.96l.49,.02Z"/><path class="g" d="M240.05,181.58c-.04,.86,.01,1.73-.41,2.7,.5-.13,.77-.2,1.04-.28-.09,.72-.18,1.43-.28,2.15-.48-.14-.07-1.13-.82-.92-.4,.11-.26,.6-.23,.95-.03,.35-.07,.71-.1,1.06-.16,0-.32,0-.48,0,.22-1.93,.43-3.86,1.28-5.65Z"/><path class="g" d="M296.02,236.96c-.83,1.35-2.15,1.54-3.45,1.79l-.15-.35c1.2-.48,2.4-.96,3.6-1.44Z"/><path class="g" d="M290.97,221.47c.01,.14,.02,.28,.03,.42-1.62,.34-3.23,.44-4.84,.14l-.02-.42c1.61-.05,3.21-.09,4.82-.14Z"/><path class="g" d="M172.48,222.21c-1.08,.7-2.3,.89-3.94,1.14,1.4-1.05,2.63-1.21,3.94-1.14Z"/><path class="g" d="M219.45,241.95c1.51-.4,3.03-.67,4.85-.74-1.11,.68-3.3,1-4.85,.74Z"/><path class="g" d="M266.44,242.39c1.41-.69,2.85-1.18,4.38-1.28-1.3,1-2.86,1.17-4.38,1.28Z"/><path class="g" d="M247.54,152.74h-.49c.2-1.61,.46-3.2,.91-4.77,.15,0,.3,.02,.45,.02-.17,1.6-.46,3.19-.87,4.74Z"/><path class="g" d="M209.53,240.86c1.79-.25,3.58-.06,5.36-.29-.96,.61-3.98,.77-5.36,.29Z"/><path class="g" d="M231.72,224.66c-1.59-.23-3.12-.58-4.16-2,1.38,.55,2.73,1.18,4.18,1.52l-.02,.48Z"/><path class="g" d="M295.75,211.16c-1.42-.13-2.78-.46-4-1.23,1.49-.08,2.78,.46,4,1.23Z"/><path class="g" d="M290.41,331.72c1.41-.71,2.95-.59,4.46-.72-1.38,.88-2.96,.57-4.46,.72Z"/><path class="g" d="M216.08,252.21v-.53c1.58,.17,3.2,.06,4.76,.52,0,.15-.02,.31-.03,.46-1.58-.15-3.16-.3-4.74-.46Z"/><path class="g" d="M312.19,231.15c1.22-.96,2.57-1.59,4.11-1.77-1.21,.96-2.61,1.48-4.11,1.77Z"/><path class="g" d="M265.74,237.54c1.34-.41,2.67-.81,4.16-1.26-.86,1.09-2.22,1.56-4.16,1.26Z"/><path class="g" d="M273.18,317.5c-2.43,.4-3.88,.29-5.13-.43h5.12l.02,.43Z"/><path class="g" d="M228.72,240.6c1.46-.2,2.92-.41,4.38-.61l.06,.39c-1.44,.37-2.88,.67-4.44,.21Z"/><path class="g" d="M187.79,277.56c1.6,.11,3.18,.24,4.57,1.1-1.59-.11-3.17-.27-4.57-1.1Z"/><path class="g" d="M233.92,212.99c.12,0,.34-.03,.34-.02,.14,1.01,.21,2.01-.63,2.93v-1.46c-.77,.05-1.52,.21-2.25,0l.02-.4c.58-.08,1.16-.17,1.7,.12,.86,.46,.73-.2,.77-.67l.05-.5Z"/><path class="g" d="M294.97,327.98c-1.2,.71-2.45,1.21-3.89,1.03,1.22-.64,2.49-1.06,3.89-1.03Z"/><path class="g" d="M218.93,238.83c1.57-.8,3.4-1.16,4.94-.92-1.72,.6-3.16,1.04-4.94,.92Z"/><path class="g" d="M233.36,245.7c-1.75,.77-3.22,.36-4.77,.44,1-.64,1.04-.64,4.77-.44Z"/><path class="g" d="M228.64,242.54c1.54-.24,3.07-.49,4.61-.73l.07,.36c-1.48,.55-3.05,.65-4.61,.75l-.06-.38Z"/><path class="g" d="M175.26,238.12c-1.71,.19-3.03-.62-4.45-1.1,1.15-.24,3.03,.26,4.45,1.1Z"/><path class="g" d="M228.81,212.07c1.45-.56,2.88-.62,4.3-.08-1.44,.18-2.89,.12-4.3,.08Z"/><path class="g" d="M203.55,371.41c-1.4,.5-2.75,.3-4.01-.55l4.01,.55Z"/><path class="g" d="M253.7,208.68l-.02-.02c.11-.25-.52-.78,.18-.77,.9,.02,1.7,.49,2.5,.89,.13,.06,.09,.25-.04,.27-.16,.02-.34-.02-.51-.03-.45-.12-.92-.55-1.35,.05,0-.61-.24-.78-.76-.4Z"/><path class="g" d="M300.52,241.05c1.15-.4,2.26-.9,3.49-.7-1.09,.67-2.26,.89-3.49,.7Z"/><path class="g" d="M200.88,235.26c1.59,.18,2.91,.32,4.39,.49-1.29,.59-2.83,.43-4.39-.49Z"/><path class="g" d="M286.26,234.3c-.97,1.07-2.34,.98-3.63,1.18,.99-1,2.4-.77,3.63-1.18Z"/><path class="g" d="M266.85,245.47c1.61-.44,3.03-.32,4.55-.85-1.07,1.15-2.52,1.42-4.55,.85Z"/><path class="g" d="M223.67,195.15c-1.15,.7-2.3,1.39-3.57,2.16,.56-1.26,1.62-1.95,3.57-2.16Z"/><path class="g" d="M316.4,221.45c-.3,.42,0,.65,.28,.88,.45,.37,.9,.73,1.62,1.31-1.43,.03-1.94-1.26-2.99-1.14l.02,.02c-.19-.52,.41-.82,.37-1.35-.02-.29,.45-.16,.72-.08v.36Z"/><path class="g" d="M288.09,214.11c1.19,.26,2.15,.86,2.86,1.86-1.12-.36-2.08-.96-2.86-1.86Z"/><path class="g" d="M287.19,365.94c1.38-.2,2.76-.41,4.32-.64-1.03,.92-2.43,1.2-4.32,.64Z"/><path class="g" d="M303.67,237.95c-.96,1.02-2.21,1.49-3.91,1.49,1.16-.81,2.58-1.01,3.91-1.49Z"/><path class="g" d="M250.61,113.82c.01-.49-.22-1.04,.28-1.43,.08,.27-.1,.7,.44,.69,.1,.37-.05,.81,.31,1.1-.17,1.11-.1,2.26-.54,3.33l-.45-.02c-.1-.61,.37-1.24-.05-1.85v.03c.5-.82,.5-1.33,.01-1.84Z"/><path class="g" d="M238.26,241.59c1.37-.65,2.83-.84,4.32-.88-1.35,.74-2.82,.89-4.32,.88Z"/><path class="g" d="M309.42,230.28c-.67,1.19-1.38,1.66-3.29,2.26,1.03-1.09,2.3-1.47,3.29-2.26Z"/><path class="g" d="M232.8,363.28l.03,.05c-.06-.25-.07-.54,.27-.49,1.23,.19,2.32,1.57,2.5,3.22-.83-1.15-1.33-2.48-2.79-2.78Z"/><path class="g" d="M244.4,151.63c-.13,1.75-.43,3.47-.97,5.15-.22-1.77,.16-3.47,.53-5.17,.15,0,.3,.01,.45,.02Z"/><path class="g" d="M257.46,97.83l-.49-.02c.32-1.68,.65-3.36,.97-5.05h.5c-.33,1.69-.65,3.37-.98,5.06Z"/><path class="g" d="M238.39,239.47c1.32-.43,2.63-.95,4.07-.77-1.27,.71-2.61,1.05-4.07,.77Z"/><path class="g" d="M214.13,242.93c-1.28,.28-2.58,.56-4.18-.07,1.63-.41,2.9,.14,4.18,.07Z"/><path class="g" d="M287.48,363.89c1.32-.46,2.68-.44,4.08-.07-1.36,.16-2.72,.32-4.09,.47,0-.13,0-.27,0-.4Z"/><path class="g" d="M248.3,167.2c.34,1.2-.37,2.29-.46,3.44-.69-1.23-.08-2.34,.46-3.44Z"/><path class="g" d="M301.44,235.43c.05,0,.12-.03,.19-.06,.45-.06,.65-.7,1.35-.48-.72,1.05-1.75,1.31-2.94,1.31,.47-.26,.93-.51,1.4-.77Z"/><path class="g" d="M258.44,92.77h-.5c.18-1.33,.39-2.65,.93-3.9,.33,1.36-.11,2.62-.43,3.9Z"/><path class="g" d="M173.69,226.53c1.24-1.13,2.32-1.77,3.62-2-.97,.81-1.94,1.65-3.62,2Z"/><path class="g" d="M203.73,382.51c-1.3,.03-2.38-.46-3.36-1.23,1.26,.07,2.32,.63,3.36,1.23Z"/><path class="g" d="M244.16,158.93c.14-1.35,.29-2.7,.43-4.04h.51c-.08,1.37-.13,2.72-.45,4.05-.16,0-.33,0-.49,0Z"/><path class="g" d="M219.35,221.29c.9-.98,1.25-2.2,1.5-3.46,.51,1.75,.1,2.69-1.5,3.46Z"/><path class="g" d="M274.27,236.9c1.35-.35,2.58-.67,3.93-1.02-.9,1.11-2.53,1.53-3.93,1.02Z"/><path class="g" d="M247.78,245.29c.3-.56,.63-.48,.9-.53,.9-.16,1.82-.14,2.74-.24-1.1,.72-2.28,.93-3.65,.77Z"/><path class="g" d="M182.09,238.38c-1.19-.23-2.4-.31-3.54-.71,1.33-.45,2.51-.2,3.54,.71Z"/><path class="g" d="M237.76,245.12c1.13-.42,2.23-.95,3.48-.68-1.08,.61-2.23,.94-3.48,.68Z"/><path class="g" d="M276.86,234.98c-.89,.86-2.06,1-3.47,1.58,.92-1.05,1.62-1.36,3.47-1.58Z"/><path class="g" d="M253.28,92.41c.03,1.59-.36,3.13-.58,4.69h-.51c.22-1.56,.44-3.13,.67-4.69,.14,0,.28,0,.43,0Z"/><path class="g" d="M291.87,237.16c.91-.43,1.82-.87,2.73-1.3-.54,1.17-1.51,1.5-2.73,1.3Z"/><path class="g" d="M213.97,236.37c-1.28,.94-1.93,1.1-3.73,.96,1.32-.66,2.53-.79,3.73-.96Z"/><path class="g" d="M303.56,236.47c-.87,1.02-1.99,1.53-3.32,1.6,.99-.77,2.06-1.38,3.32-1.6Z"/><path class="g" d="M246.33,238.8c1.11-.48,2.21-.96,3.45-1.5-.7,1.18-1.34,1.5-3.45,1.5Z"/><path class="g" d="M267.09,239.05c1.09-.74,2.26-.99,3.82-1.24-1.29,1.21-2.64,1.04-3.82,1.24Z"/><path class="g" d="M295.66,239.28c-.84,.73-1.86,.87-2.85,1.06,.8-.9,1.8-1.06,2.85-1.06Z"/><path class="g" d="M275.82,242.02c1.15-.71,2.45-.92,3.75-1.17-1.06,.98-2.33,1.3-3.75,1.17Z"/><path class="g" d="M258.58,244.17c1.07-.42,2.24-.36,3.33-.72-.89,1.1-2.15,1-3.32,1.17,0-.15,0-.3,0-.44Z"/><path class="g" d="M274.96,251.57v-.45c1.3-.39,2.65-.55,4.01-.6,0,.14,.01,.28,.02,.42-1.3,.46-2.68,.42-4.03,.62Z"/><path class="g" d="M270.52,202.54c1.16-1.04,2.4-.83,3.94-.37-.81,.62-1.43,.17-2,.24-.64,.08-1.29,.09-1.94,.13Z"/><path class="g" d="M236.76,211.24l-.46-.02c.2-1.68,.39-3.36,.59-5.04h.52c-.22,1.68-.43,3.37-.65,5.06Z"/><path class="g" d="M182.89,224.83c.31,1.37-.66,2.11-1.46,2.94,.04-1.18,1.12-1.89,1.46-2.94Z"/><path class="g" d="M262.07,228.24c.65,.86,1.33,1.7,1.09,3-.5-.93-.99-1.87-1.49-2.8l.4-.2Z"/><path class="g" d="M174.82,234.07c-1.24,.25-2.31-.17-3.63-.92,1.54-.14,2.55,.51,3.63,.92Z"/><path class="g" d="M291.44,235.53c.82-.96,1.79-1.69,3-2.06-.7,1.11-1.8,1.67-3,2.06Z"/><path class="g" d="M287.97,240.22c-.86,.89-2.01,1.06-3.28,1.47,.82-1.01,.99-1.09,3.28-1.47Z"/><path class="g" d="M242.2,245.96c-.99,.79-2.06,1.16-3.25,.44,1.06-.27,2.17-.16,3.25-.44Z"/><path class="g" d="M171.55,232.12c1.45-.33,2.46-.01,3.46,.46-1.08,.21-2.14,.2-3.46-.46Z"/><path class="g" d="M270.68,211.78c1.17,.22,2.16,.75,3.03,1.51-1.19-.16-2.17-.72-3.03-1.51Z"/><path class="g" d="M195.09,341.49c1.24,.11,2.37,.81,3.85,.56-1.43,.81-2.21,.7-3.85-.56Z"/><path class="g" d="M200.86,238.96c1.59-.31,2.87,.54,4.25,.32-1.1,.6-2.26,.5-4.25-.32Z"/><path class="g" d="M251.92,124.77c-.21,1.44-.43,2.88-.64,4.32h-.48c.21-1.44,.42-2.89,.64-4.33,.16,0,.32,0,.49,0Z"/><path class="g" d="M253.28,92.41c-.14,0-.28,0-.43,0,.16-1.1,.16-2.23,.55-3.44,.45,1.23,.43,1.52-.12,3.45Z"/><path class="g" d="M274.09,204.07c-1.1,.07-2.21,.15-3.31,.22,.98-1.02,2.19-.55,3.3-.7v.47Z"/><path class="g" d="M186.72,234.58c.9-.57,1.86-.48,2.83-.41-.89,.51-1.89,.38-2.83,.41Z"/><path class="g" d="M256.41,158.54c-.22,1.34-.23,2.72-.71,4.01h-.37c-.03-1.39,.27-2.71,.63-4.03l.45,.02Z"/><path class="g" d="M186.7,236.33c.89-.51,1.81-.46,2.73-.06-.9,.35-1.81,.24-2.73,.06Z"/><path class="g" d="M295.01,213.43c-.86-.52-1.73-1.04-2.79-1.68,1.33-.03,1.72,.17,2.79,1.68Z"/><path class="g" d="M256.3,204.91c-1.11,.22-2.14-.31-3.6-.25,1.4-.52,1.96-.47,3.6,.25Z"/><path class="g" d="M279.6,242.52c-1.34,.91-2.44,1.17-3.66,.94,1.02-.54,2.1-.86,3.66-.94Z"/><path class="g" d="M205.92,221.34v-.45c1.31,.09,2.61,.18,3.91,.27-1.3,.73-2.61,.24-3.91,.17Z"/><path class="g" d="M204.76,241.6c-.97-.12-1.98,.21-2.87-.32,1.01-.31,1.99-.32,2.87,.32Z"/><path class="g" d="M247.23,240.28c1.04-.36,2.05-.83,3.45-.71-1.22,.77-2.34,.78-3.45,.71Z"/><path class="g" d="M296.12,253.68h-4.03c1.49-.5,2.75-.4,4.03,0Z"/><path class="g" d="M245.1,154.9h-.51c.22-1.57,.43-3.13,.65-4.7h.52c-.22,1.57-.44,3.13-.66,4.7Z"/><path class="g" d="M254.1,111.32c-.16,0-.32,0-.48,0,.16-1.02,.12-2.09,.76-3.03,.3,1.04-.07,2.03-.27,3.03Z"/><path class="g" d="M258.2,246c1.12-.33,2.2-.58,3.31-.12-1.09,.41-2.22,.25-3.31,.12Z"/><path class="g" d="M211.06,228.21c.01,1.07-.84,1.58-.97,2.4q-.15-1.13,.97-2.4Z"/><path class="g" d="M174.47,231.06c-.93-.11-1.85-.22-3.1-.37,1.31-.94,2.22-.21,3.14-.07-.01,.15-.03,.29-.04,.44Z"/><path class="g" d="M195.35,222.21c0,.15-.01,.29-.02,.44-1.47,.04-2.89-.32-4.32-.54,0-.15,.01-.3,.02-.45,1.44,.18,2.88,.37,4.32,.55Z"/><path class="g" d="M179.18,236.11c1.08-.57,2.16-.06,3.24,.06-1.08,.41-2.16,.13-3.24-.06Z"/><path class="g" d="M256.21,202.63c-1.05,.32-1.97-.16-2.95-.29,1.05-.49,2.02-.25,2.95,.29Z"/><path class="g" d="M247.98,243.73c1.06-.18,2.12-.36,3.5-.6-1.19,1.16-2.39,.67-3.39,1.1l-.1-.5Z"/><path class="g" d="M199.23,366.41c.96,.26,1.87,.41,2.91,.47-1.15,.78-1.81,.67-2.91-.47Z"/><path class="g" d="M193.87,240.19c1.1-.5,2.14-.28,3.14,.2-1.08,.22-2.09-.22-3.14-.2Z"/><path class="g" d="M248.34,155.59c-.19-1.48,.13-2.89,.23-4.33l.46,.05c-.1,1.44-.21,2.88-.31,4.31l-.38-.03Z"/><path class="g" d="M290.15,229.29c-.42-.8-.84-1.6-.64-2.56,.55,.76,.96,1.56,.64,2.56Z"/><path class="g" d="M253.71,172.71l.62-4.33h.49c-.21,1.44-.42,2.88-.63,4.33h-.48Z"/><path class="g" d="M241.56,169.1c.55,.52,.16,1.2,.32,1.79,.09,1.14-.24,2.19-.61,3.25-.29-1.71,.43-3.35,.29-5.03Z"/><path class="g" d="M198.96,368.24c1.24,.18,2.27,.34,3.44,.51-1.32,.51-2.16,.39-3.44-.51Z"/><path class="g" d="M224.39,196.71c-1.13,.97-2.27,1.04-3,1.84,.39-1.21,.68-1.39,3-1.84Z"/><path class="g" d="M251.92,124.77c-.16,0-.32,0-.49,0,.17-1.23,.18-2.48,.64-3.66h.38c.06,1.26-.26,2.46-.53,3.66Z"/><path class="g" d="M213.72,238.6c-1.1,.38-2.18,.81-3.37,.51,1.08-.44,2.19-.73,3.37-.51Z"/><path class="g" d="M252.97,180.01c-.2,1.44-.41,2.89-.61,4.33h-.49c.21-1.44,.42-2.88,.63-4.33,.16,0,.31,0,.47,0Z"/><path class="g" d="M196.83,235.46c-1,.41-1.89-.02-2.8-.31,.99-.51,1.87,.19,2.8,.31Z"/><path class="g" d="M251.91,186.91c-.21,1.44-.42,2.89-.63,4.33h-.49c.21-1.44,.42-2.89,.62-4.33h.5Z"/><path class="g" d="M254.05,200.11c.99-.07,1.97-.11,3.06,.23-1.37,.58-1.63,.56-3.06-.23Z"/><path class="g" d="M272.4,200.6c1.04-.47,2.1-.29,3.4-.18-1.16,.93-2.34,.39-3.38,.61l-.02-.43Z"/><path class="g" d="M224.04,246.12c-.93,.08-1.84,.1-2.9-.56,1.25-.33,2.07,.19,2.9,.56Z"/><path class="g" d="M248.34,155.59l.38,.03c-.06,1.1,.08,2.23-.51,3.28-.15-1.11-.4-2.22,.13-3.31Z"/><path class="g" d="M240.79,406.77c2.18-.25,4.36-.17,6.54-.05v.42c-2.17,0-4.35,.02-6.52,.02l-.02-.39Z"/><path class="g" d="M249.49,121.03c-.04-.25-.09-.51,.19-.67,.19,.22,.37,.27,.49-.06,.08-.22,.16-.45,.24-.67h.49c-.07,.89-.17,1.76-.44,2.6-.16,0-.33,0-.49,0,0-.3,.04-.61,.01-.91-.02-.29-.2-.4-.48-.28Z"/><path class="g" d="M249.96,122.21c.16,0,.33,0,.49,0-.21,1.32-.41,2.64-.62,3.96h-.49c.21-1.32,.41-2.65,.62-3.97Z"/><path class="g" d="M198.65,346.78c-.95-.21-2.05,.03-2.93-1.03,1.14,.07,2.06,.23,2.95,.58l-.02,.45Z"/><path class="g" d="M223.01,228.69c-.2,1.19-.53,1.92-1.08,2.56-.11-.91,.08-1.7,1.08-2.56Z"/><path class="g" d="M315.31,222.5c-.38,.97,.94,1.2,.9,2.12-.64-.04-.87-.6-1.25-.9-.91-.71-.12-.91,.37-1.2l-.02-.02Z"/><path class="g" d="M186.99,238.01c.91-.53,1.83-.46,2.76-.13-.89,.49-1.85,.17-2.76,.13Z"/><path class="g" d="M231.32,238c.91-.27,1.81-.67,2.8-.47-.82,.68-1.81,.76-2.78,.93l-.02-.47Z"/><path class="g" d="M253.05,101.1h.45c-.16,.99-.32,1.97-.48,2.96h-.48c.16-.99,.09-2.02,.51-2.96Z"/><path class="g" d="M235.98,203.6c-.15,1.35-.37,2.69-.88,3.98-.37-1.38,.13-2.67,.4-3.99,.16,0,.32,0,.48,0Z"/><path class="g" d="M252.19,97.09h.51c-.19,.98-.06,2.02-.51,2.96l-.44-.02c.15-.98,.29-1.96,.44-2.94Z"/><path class="g" d="M179.22,232.73h3c-.99,.8-2.01,.06-3.01,.41v-.41Z"/><path class="g" d="M205.24,230.64c.04-1.3,.63-1.93,1.23-2.73q.02,1.03-1.23,2.73Z"/><path class="g" d="M244.1,149.47c.05-1,.24-1.97,.48-2.94,.17,0,.34,0,.5,0-.17,.99-.11,2.01-.54,2.95l-.45-.02Z"/><path class="g" d="M245.08,146.54c-.17,0-.34,0-.5,0,.22-1.2,.2-2.44,.57-3.61h.36c.13,1.24-.36,2.41-.43,3.62Z"/><path class="g" d="M233.52,224.37c.92,.14,1.84,.27,2.76,.41-.97,.65-1.88,.39-2.79,.05,0-.15,.02-.3,.02-.46Z"/><path class="g" d="M290.64,346.23c.76-.77,1.78-.93,3.13-1.34-1.04,1.12-2.13,1.1-3.13,1.34Z"/><path class="g" d="M247.6,228.99v2.43c-.73-1.1-.72-1.46,0-2.43Z"/><path class="g" d="M271.36,206.52c.7-.87,1.57-.78,2.5-.34l-2.5,.34Z"/><path class="g" d="M306.62,217.94c0-.15-.01-.31-.02-.46,1.2-.21,2.4-.41,3.61-.62,0,.17,0,.34,0,.5-1.2,.19-2.37,.55-3.59,.58Z"/><path class="g" d="M231.38,244.44c-.9,.35-1.8,.3-2.71,.04,.84-.58,1.79-.41,2.69-.47l.02,.43Z"/><path class="g" d="M310.57,223.83q1.31,.72,1.53,2.43c-.65-1.02-1.09-1.73-1.53-2.43Z"/><path class="g" d="M286.39,227c1.03,.17,1.33,1.09,1.91,1.72-.92-.28-1.44-.97-1.91-1.72Z"/><path class="g" d="M240.43,242.94c-.93,.46-1.92,.57-3.33,.63,1.27-.83,2.3-.71,3.33-.63Z"/><path class="g" d="M205.53,243.24c-.96,.97-1.73,.76-2.55,.64,.24-.69,.74-.38,1.1-.45,.34-.07,.69-.09,1.46-.18Z"/><path class="g" d="M193.57,283.85c0-.16,0-.31,0-.47,.99,.1,1.98,.19,2.97,.29-.98,.69-1.99,.21-2.98,.18Z"/><path class="g" d="M212.69,228.03c-.24,.87-.35,1.77-1.1,2.44-.05-1.17,.08-1.48,1.1-2.44Z"/><path class="g" d="M251.91,186.91h-.5c.15-.85,.3-1.71,.45-2.56h.49c-.06,.86-.2,1.72-.45,2.56Z"/><path class="g" d="M278.25,240.02c-.71,.47-1.55,.41-2.38,.45,.65-.66,1.5-.77,2.37-.85v.4Z"/><path class="g" d="M240.78,176.86c-.07,1.62-.11,3.24-.83,4.75,.06-1.62,.19-3.23,.83-4.75Z"/><path class="g" d="M242.2,195.97l-.46-.02c.19-1.05-.06-2.21,.88-3.1l-.42,3.12Z"/><path class="g" d="M260.41,242.78c-.9,.13-1.8,.48-2.74-.02,.88-.35,1.86-.19,2.74-.51,0,.18,0,.35,0,.53Z"/><path class="g" d="M250.79,191.25h.49c-.15,.86-.3,1.72-.46,2.58-.16,0-.33,0-.49,0,.05-.88,.19-1.74,.45-2.57Z"/><path class="g" d="M233.79,212.63c.52-.75,.23-1.71,.63-2.49,.16,0,.31,0,.47,0-.1,.8-.13,1.62-.31,2.41-.13,.57-.5,.58-.8,.05v.02Z"/><path class="g" d="M256.41,158.54l-.45-.02c.08-1.05,.12-2.1,.7-3.49,.32,1.48-.26,2.49-.25,3.52Z"/><path class="g" d="M243.22,157.12c.17,.84,.32,1.72-.52,2.5-.12-.94,.32-1.68,.52-2.5Z"/><path class="g" d="M254.82,168.37h-.49c.06-.87,.19-1.74,.47-2.58h.47c-.15,.87-.3,1.73-.45,2.58Z"/><path class="g" d="M200.54,378.61c.85-.34,1.59-.07,2.3,.31-.88,.48-1.57-.02-2.3-.31Z"/><path class="g" d="M253.71,172.71h.48c-.15,.86-.3,1.72-.45,2.58h-.49c.06-.88,.17-1.75,.46-2.58Z"/><path class="g" d="M246.73,140.71h.51c-.05,.89-.16,1.76-.45,2.6l-.49-.02c.14-.86,.29-1.72,.43-2.58Z"/><path class="g" d="M250.8,129.09h.48c-.12,.88-.16,1.77-.55,2.59l-.45-.02c.08-.87,.23-1.73,.52-2.57Z"/><path class="g" d="M290.71,370.49c-.76,.91-1.67,1.05-2.53,1.3,.56-.87,1.37-1.23,2.53-1.3Z"/><path class="g" d="M310.21,217.37c0-.17,0-.34,0-.5,.72-.21,1.43-.51,2.25-.35-.57,.74-1.46,.66-2.25,.86Z"/><path class="g" d="M255.27,165.8h-.47c.14-1.1,.16-2.21,.53-3.26h.37c.11,1.13-.41,2.16-.43,3.26Z"/><path class="g" d="M252.97,180.01c-.16,0-.31,0-.47,0,.15-.86,.3-1.72,.46-2.58,.16,0,.32,0,.48,0-.06,.88-.16,1.74-.47,2.58Z"/><path class="g" d="M265.56,231.08c-1.08-.71-.86-1.66-1.01-2.46,.82,.54,.77,1.42,1.01,2.46Z"/><path class="g" d="M316.4,221.45v-.36c.88-.13,1.56,.39,2.32,.65-.83,.19-1.58,0-2.32-.29Z"/><path class="g" d="M203.01,237.74c-.84-.07-1.72,.12-2.76-.48,1.13-.33,1.95-.22,2.78,.06,0,.14-.01,.28-.02,.43Z"/><path class="g" d="M197.18,242.03c-.88,.29-1.61,.07-2.55-.24q1.42-.41,2.55,.24Z"/><path class="g" d="M279.68,290.79c0-.13,0-.26,0-.39,.67-.45,1.48-.27,2.22-.47-.53,.83-1.4,.78-2.22,.86Z"/><path class="g" d="M196.92,343.83c.71-.24,1.34-.17,2.08,.09-.98,.41-.98,.42-2.08-.09Z"/><path class="g" d="M197.04,238.63c-.79-.06-1.57-.12-2.36-.18,.81-.71,1.6-.2,2.39-.24,0,.14-.02,.28-.03,.42Z"/><path class="g" d="M319.08,230.1c.27-.69,.71-1.2,1.72-1.64-.48,.99-.98,1.44-1.72,1.64Z"/><path class="g" d="M285.12,236.49c.7-.18,1.35-.61,2.26-.49-.62,.9-1.5,.8-2.25,1.01v-.52Z"/><path class="g" d="M247.68,214.16c-.06,.68-.06,1.39-.64,2.22-.16-.95-.23-1.61,.18-2.25l.46,.03Z"/><path class="g" d="M237.41,206.18h-.52l.39-2.21h.53c-.13,.74-.26,1.48-.4,2.21Z"/><path class="g" d="M167.11,231.76c1.02-.34,1.56,.11,2.27,.83-.98,0-1.58-.26-2.27-.83Z"/><path class="g" d="M273.18,317.5l-.02-.43c1.16-.05,2.33-.1,3.49-.16-1.12,.55-2.27,.76-3.48,.59Z"/><path class="g" d="M249.34,126.18h.49c-.14,.74-.28,1.48-.42,2.22-.17,0-.34,0-.51,0,.11-.75,.12-1.52,.44-2.22Z"/><path class="g" d="M312.85,223.03c.76,.3,1.1,.85,1.36,1.86-.96-.56-1.15-1.23-1.36-1.86Z"/><path class="g" d="M249.51,242.11c-.69,0-1.37,.4-2.3,.05,.82-.54,1.59-.39,2.29-.52v.47Z"/><path class="g" d="M266.62,319.61v.44c-.63,.21-1.27,.48-2.09,0,.72-.53,1.44-.34,2.09-.43Z"/><path class="g" d="M185.35,225.6c-.24,1.05-.56,1.69-1.18,2.37-.11-1.04,.18-1.68,1.18-2.37Z"/><path class="g" d="M272.02,214.78c-.62,.28-1.16,.03-1.75-.12q.63-.58,1.75,.12Z"/><path class="g" d="M249.5,272.93l.02,.45c-1.45,.05-2.89,.11-4.34,.16v-.44c1.44-.02,2.87-.36,4.31-.18Z"/><path class="g" d="M202.61,250.4c0-.18,0-.36,0-.54,.74,.13,1.48,.26,2.22,.39v.54c-.74-.13-1.48-.26-2.22-.38Z"/><path class="g" d="M249.07,231.17c-.34-.76-.32-1.52-.23-2.52,.64,.94,.5,1.73,.23,2.52Z"/><path class="g" d="M321.07,230.56c-.41,.62-.9,1-1.86,1.17,.59-.88,1.15-1.19,1.86-1.17Z"/><path class="g" d="M180.08,234.42c.61-.33,1.2-.39,2.06,.12-.81,.36-1.44,.28-2.05,.27,0-.13,0-.26,0-.39Z"/><path class="g" d="M256.28,199.13c-.8,.31-1.44-.13-2.25-.37,.93-.6,1.54,.16,2.25,.37Z"/><path class="g" d="M187.9,240.95c.97-.16,1.53-.33,2.1,.12q-.82,.3-2.1-.12Z"/><path class="g" d="M212.84,244.81c-.74,.35-1.41,.18-2.41-.27,1.05-.38,1.74-.03,2.4-.16,0,.14,.01,.28,.02,.43Z"/><path class="g" d="M249.51,242.11v-.47c.67-.32,1.38-.45,2.3-.54-.66,.99-1.54,.85-2.3,1.01Z"/><path class="g" d="M278.52,244.88c-.71-.02-1.31,.39-2.11,0,.76-.39,1.36-.83,2.11,0Z"/><path class="g" d="M245.7,162.53h.51c-.04,.58-.16,1.12-.71,1.79-.22-.81-.04-1.3,.2-1.79Z"/><path class="g" d="M320.65,233.15c.21-.11,.41-.22,.62-.32,.22-.1,.51-.24,.61,.06,.13,.35-.12,.55-.47,.57-.23,.01-.46,0-.7,0-.02-.1-.04-.21-.07-.31Z"/><path class="g" d="M167.69,229.84c.13-.29,.35-.3,.59-.22,.33,.12,.78,.26,.6,.69-.19,.43-.48-.05-.73-.1-.2-.04-.51-.02-.45-.37Z"/><path class="g" d="M258.58,239c.69-.32,1.38-.48,2.02,.11-.67,.14-1.34,.27-2.01,.41,0-.17,0-.35,0-.52Z"/><path class="g" d="M275.72,293.17c0-.14,0-.29-.01-.43,.8-.12,1.61-.25,2.69-.42-.93,.9-1.85,.7-2.68,.85Z"/><path class="g" d="M186.37,228.07c-.27-.99,.26-1.4,.7-1.85,.17,.69-.18,1.19-.7,1.85Z"/><path class="g" d="M258.58,239c0,.17,0,.35,0,.52-.68,.07-1.31,.53-2.12,.33,.57-.8,1.45-.55,2.11-.85Z"/><path class="g" d="M189.83,239.52c-.88,.26-1.59,.09-2.3,.02,1.05-.34,1.05-.36,2.3-.02Z"/><path class="g" d="M239.35,186.19c-.02-.35-.16-.84,.23-.95,.74-.21,.33,.79,.82,.92,.07,.3-.04,.54-.21,.77-.15,0-.3-.02-.46-.03-.15-.23,.21-.72-.38-.72Z"/><path class="g" d="M195.74,237.35c-.58-.03-1.17-.05-1.75-.47,.63-.33,1.19-.33,1.76,0v.48Z"/><path class="g" d="M260.41,242.78c0-.18,0-.35,0-.53,.48-.05,.87-.59,1.44-.27-.24,.75-.92,.64-1.44,.8Z"/><path class="g" d="M233.16,213.38c-.64-.06-1.27-.13-1.91-.19,.62-.58,1.28-.58,1.97-.23-.02,.14-.04,.28-.06,.42Z"/><path class="g" d="M271.43,208.02c.67-.37,1.26,.12,1.88,.03-.94,.4-.94,.39-1.88-.03Z"/><path class="g" d="M231.39,214.04l-.02,.4c-.48-.05-.99,.18-1.55-.15,.51-.57,1.01-.6,1.58-.26Z"/><path class="g" d="M196.1,215.56l.02-.44c.48,.16,1.06,0,1.63,.43-.66,.41-1.15-.04-1.64,0Z"/><path class="g" d="M229.92,238.63c-.4,.36-.84,.32-1.41,.15,.36-.64,.92-.5,1.39-.58,0,.14,0,.28,.01,.42Z"/><path class="g" d="M291.72,270.63c-.4,.32-.82,.39-1.34,.08,.32-.56,.86-.44,1.33-.51,0,.14,0,.28,.01,.43Z"/><path class="g" d="M244.16,158.93c.16,0,.33,0,.49,0-.09,.6,.08,1.22-.19,1.8-.11-.03-.21-.03-.32-.02-.13-.6-.13-1.19,.02-1.78Z"/><path class="g" d="M285.12,236.49v.52c-.51,.04-1,.34-1.64,.18,.37-.77,1.16-.39,1.64-.7Z"/><path class="g" d="M200.68,376.04c.48,.23,.95,.46,1.49,.72q-.89,.13-1.75-.45l.26-.28Z"/><path class="g" d="M234.89,210.14c-.16,0-.31,0-.47,0,.1-.72,.19-1.44,.29-2.16,.48,.75,.28,1.46,.18,2.17Z"/><path class="g" d="M195.74,237.35v-.48c.56,.07,1.12,.15,1.87,.25-.73,.62-1.31,.24-1.87,.23Z"/><path class="g" d="M237.56,407.3l-.02-.45h2.53l.02,.37c-.84,.22-1.68,.14-2.53,.08Z"/><path class="g" d="M235.98,203.6c-.16,0-.32,0-.48,0,.08-.59,.17-1.19,.25-1.78,.15,0,.29,.01,.44,.02-.07,.59-.14,1.18-.21,1.77Z"/><path class="g" d="M251.63,114.18c-.36-.3-.21-.73-.31-1.1v-1.37l.44,.02c.24,.81-.11,1.64-.12,2.45Z"/><path class="g" d="M272.4,200.6l.02,.43h-2.67c1.06-.56,1.86-.52,2.65-.43Z"/><path class="g" d="M300.02,218.43l.02,.44c-.81-.02-1.63,.13-2.42-.28l2.4-.16Z"/><path class="g" d="M250.9,119.64h-.49c.08-.72,.15-1.44,.23-2.16l.45,.02c-.07,.71-.13,1.42-.2,2.13Z"/><path class="g" d="M278.25,240.02v-.4c.47-.04,.89-.54,1.51-.21-.39,.6-.96,.58-1.51,.62Z"/><path class="g" d="M269.09,228.47c.76,.58,.9,1.04,.73,1.69-.47-.4-.61-.85-.73-1.69Z"/><path class="g" d="M251.75,100.03l.44,.02c-.05,.71-.1,1.43-.15,2.14-.15,0-.3-.02-.46-.02,.05-.71,.11-1.43,.16-2.14Z"/><path class="g" d="M241.29,174.38c-.4,.79,.13,1.8-.61,2.51-.13-.78,.1-1.53,.19-2.3,.03-.27,.27-.16,.42-.21Z"/><path class="g" d="M253.44,177.43c-.16,0-.32,0-.48,0,.1-.71,.2-1.43,.29-2.14h.49c-.1,.72-.2,1.43-.3,2.15Z"/><path class="g" d="M246.26,376.62c-.17-.01-.35,0-.5-.04-.21-.07-.46-.22-.38-.46,.1-.27,.38-.17,.6-.11,.11,.03,.2,.1,.31,.16l-.03,.46Z"/><path class="g" d="M212.84,244.81c0-.14-.01-.28-.02-.43,.41-.02,.84-.29,1.28,.07-.38,.38-.81,.4-1.27,.35Z"/><path class="g" d="M244.1,149.47l.45,.02-.14,2.14c-.15,0-.3-.01-.45-.02,.05-.72,.09-1.43,.14-2.15Z"/><path class="g" d="M248.41,148c-.15,0-.3-.02-.45-.02,.07-.71,.13-1.42,.2-2.13h.49c-.08,.72-.16,1.44-.24,2.16Z"/><path class="g" d="M246.3,143.29l.49,.02c-.07,.59-.14,1.19-.2,1.78-.15,0-.31-.02-.46-.03l.18-1.77Z"/><path class="g" d="M230.87,213.37h-1.97q1.02-.45,1.97,0Z"/><path class="g" d="M240.77,183.62c-.41-.62-.49-1.22,.06-1.8-.02,.6-.04,1.2-.06,1.8Z"/><path class="g" d="M246.26,376.62l.03-.46c.59-.03,1.17-.05,1.76-.08v.49c-.59,.01-1.18,.03-1.78,.04Z"/><path class="g" d="M278.59,358.52l-.02,.49c-.59-.1-1.22,.16-1.78-.2,.02-.09,.02-.18,.01-.27,.59-.16,1.19-.12,1.79-.03Z"/><path class="g" d="M239.73,186.91c.15,0,.3,.02,.46,.03l-.14,1.78c-.44-.26-.22-.72-.34-1.08,0-.24,.02-.48,.02-.72Z"/><path class="g" d="M233.52,224.37c0,.15-.02,.3-.02,.46l-1.78-.17,.02-.48c.59,.07,1.18,.13,1.78,.2Z"/><path class="g" d="M250.33,193.82c.16,0,.33,0,.49,0-.08,.6-.15,1.19-.23,1.79l-.46-.02c.07-.59,.13-1.18,.2-1.77Z"/><path class="g" d="M231.38,244.44l-.02-.43c.58-.06,1.16-.17,1.83,.11-.59,.58-1.22,.35-1.81,.32Z"/><path class="g" d="M247.68,214.16l-.46-.03,.2-1.77h.5c-.08,.61-.15,1.2-.23,1.8Z"/><path class="g" d="M203.01,237.74c0-.14,.01-.28,.02-.43,.6-.07,1.21-.17,1.8,.08-.03,.11-.04,.21-.02,.32-.6,.15-1.19,.1-1.79,.02Z"/><path class="g" d="M200.41,376.32c-.25-.03-.48-.16-.29-.41,.18-.24,.38,0,.55,.14l-.26,.28Z"/><path class="g" d="M180.08,234.42c0,.13,0,.26,0,.39-.45,.1-.9,.19-1.32-.13,.4-.44,.85-.36,1.31-.26Z"/><path class="g" d="M243.32,169.08l-.44-.02c-.08-.49-.1-.97,.05-1.45l.39,.03c0,.48,0,.96,0,1.44Z"/><path class="g" d="M301.84,214.42l.02,.43c-.48,0-.96,0-1.44,0,0-.13-.01-.25-.02-.38,.48-.14,.96-.16,1.44-.06Z"/><path class="g" d="M249.18,201.44l.43,.02c-.05,.47-.11,.94-.16,1.42h-.48c.07-.48,.14-.96,.22-1.43Z"/><path class="g" d="M278.99,250.95c0-.14-.01-.28-.02-.42,.47-.07,.95-.15,1.42-.22v.5l-1.41,.15Z"/><path class="g" d="M240.62,242.79c.66-.32,1.08-.47,1.71-.2-.53,.38-.95,.5-1.71,.2Z"/><path class="g" d="M202.64,223.58l.02-.44c.48-.09,.96-.09,1.43,.11,.01,.11,0,.23,0,.34-.48,0-.96,0-1.44,0Z"/><path class="g" d="M245.18,273.11v.44c-.21,.23-.48,.23-.76,.16v-.44c.22-.22,.48-.21,.76-.16Z"/><path class="g" d="M250.29,131.66l.45,.02c-.05,.47-.1,.94-.15,1.42l-.45-.02c.05-.47,.1-.94,.15-1.42Z"/><path class="g" d="M247.33,407.13v-.42c.18-.14,.47-.29,.55,0,.1,.36-.21,.48-.55,.42Z"/><path class="g" d="M200.06,346.34c.24-.14,.57-.4,.66,.04,.05,.26-.28,.48-.64,.42l-.02-.46Z"/><path class="g" d="M200.06,346.34l.02,.46c-.48,0-.96-.01-1.43-.02l.02-.45c.46,0,.93,0,1.39,0Z"/><path class="g" d="M291.72,270.63c0-.14,0-.28-.01-.43,.47-.08,.94-.16,1.41-.24,0,.16,0,.31,.01,.47-.47,.07-.94,.13-1.41,.2Z"/><path class="g" d="M229.92,238.63c0-.14,0-.28-.01-.42,.47-.07,.94-.14,1.41-.22l.02,.47c-.47,.06-.94,.12-1.41,.17Z"/><path class="g" d="M220.82,252.67c0-.15,.02-.31,.03-.46,.47-.06,.94-.09,1.41,.05v.43c-.47,0-.95,0-1.43,0Z"/><path class="g" d="M222.26,252.68v-.43c.25-.13,.49-.02,.73,.09v.39l-.73-.05Z"/><path class="g" d="M258.58,244.17c0,.15,0,.3,0,.44-.35,.13-.71,.12-1.06,.05l-.03-.39c.36-.03,.73-.07,1.09-.1Z"/><path class="g" d="M233.16,213.38c.02-.14,.04-.28,.06-.42,.17-.15,.64,.24,.58-.33v-.03c.03,.13,.08,.26,.12,.39l-.05,.5c-.24-.04-.47-.08-.71-.11Z"/><path class="g" d="M250.97,390.48c0,.16-.02,.33-.03,.49-.18,0-.36,.02-.53-.02-.16-.04-.42-.13-.44-.22-.04-.34,.27-.27,.47-.29,.18-.01,.35,.02,.53,.03Z"/><path class="g" d="M240.16,203.64c.16,0,.31,0,.47,0-.08,.35-.16,.7-.23,1.06-.09,0-.17,0-.26,0-.1-.35-.12-.71,.02-1.06Z"/><path class="g" d="M240.09,407.22l-.02-.39c.24-.02,.48-.04,.72-.06l.02,.39c-.24,.02-.48,.04-.72,.06Z"/><path class="g" d="M204.8,237.72c-.01-.11,0-.22,.02-.32,.14-.03,.25,.03,.23,.17-.01,.06-.16,.1-.25,.15Z"/><path class="g" d="M243.31,167.64l-.39-.03c0-.19,.08-.33,.29-.25,.06,.02,.07,.19,.1,.28Z"/><path class="g" d="M204.08,223.58c.02-.11,.02-.23,0-.34,.12,.01,.25,.02,.37,.03-.02,.11-.02,.23,0,.34-.12-.01-.25-.02-.37-.03Z"/><path class="g" d="M244.14,160.71c.11,0,.22,0,.32,.02,.04,.15-.02,.25-.17,.24-.14-.01-.19-.13-.15-.26Z"/><path class="g" d="M257.5,244.27l.03,.39c-.1-.03-.26-.04-.28-.1-.08-.21,.07-.28,.25-.29Z"/><path class="g" d="M300.4,214.48c0,.13,.01,.25,.02,.38l-.42-.17,.4-.21Z"/><path class="g" d="M240.14,204.7c.09,0,.17,0,.26,0,0,.14,0,.29-.19,.24-.04,0-.05-.16-.07-.25Z"/><path class="g" d="M276.8,358.54c.01,.09,.01,.18-.01,.27l-.22-.15,.24-.12Z"/><polygon class="g" points="240.8 155.28 240.85 155.32 240.8 155.29 240.8 155.28"/><path class="g" d="M242.98,412.24c.02-.15,.03-.29,.05-.44,.12,.09,.23,.17,.35,.26-.13,.06-.27,.12-.4,.18Z"/></svg>